<?xml version="1.0" encoding="UTF-8" standalone="no"?>
<!-- Created with Inkscape (http://www.inkscape.org/) -->

<svg
   xmlns:dc="http://purl.org/dc/elements/1.1/"
   xmlns:cc="http://creativecommons.org/ns#"
   xmlns:rdf="http://www.w3.org/1999/02/22-rdf-syntax-ns#"
   xmlns:svg="http://www.w3.org/2000/svg"
   xmlns="http://www.w3.org/2000/svg"
   xmlns:sodipodi="http://sodipodi.sourceforge.net/DTD/sodipodi-0.dtd"
   xmlns:inkscape="http://www.inkscape.org/namespaces/inkscape"
   width="1832.2177"
   height="2812.6572"
   id="svg2"
   version="1.1"
   inkscape:version="0.48.5 r10040"
   sodipodi:docname="map.svg">
  <defs
     id="defs4">
    <clipPath
       id="clipPath3099"
       clipPathUnits="userSpaceOnUse">
      <path
         id="path3101"
         d="m 0,0 1683.78,0 0,2383.937 L 0,2383.937 0,0 z"
         inkscape:connector-curvature="0" />
    </clipPath>
    <clipPath
       id="clipPath3003"
       clipPathUnits="userSpaceOnUse">
      <path
         id="path3005"
         d="m 0,0 1683.78,0 0,2383.937 L 0,2383.937 0,0 z"
         inkscape:connector-curvature="0" />
    </clipPath>
  </defs>
  <sodipodi:namedview
     id="base"
     pagecolor="#ffffff"
     bordercolor="#666666"
     borderopacity="1.0"
     inkscape:pageopacity="0.0"
     inkscape:pageshadow="2"
     inkscape:zoom="0.35"
     inkscape:cx="1411.5826"
     inkscape:cy="2923.6926"
     inkscape:document-units="px"
     inkscape:current-layer="layer1"
     showgrid="false"
     inkscape:window-width="1536"
     inkscape:window-height="811"
     inkscape:window-x="-8"
     inkscape:window-y="-8"
     inkscape:window-maximized="1"
     fit-margin-top="0"
     fit-margin-left="0"
     fit-margin-right="0"
     fit-margin-bottom="0" />
  <metadata
     id="metadata7">
    <rdf:RDF>
      <cc:Work
         rdf:about="">
        <dc:format>image/svg+xml</dc:format>
        <dc:type
           rdf:resource="http://purl.org/dc/dcmitype/StillImage" />
        <dc:title></dc:title>
      </cc:Work>
    </rdf:RDF>
  </metadata>
  <g
     inkscape:label="Layer 1"
     inkscape:groupmode="layer"
     id="layer1"
     transform="translate(541.11791,873.96686)">
    <g
       id="g3647"
       transform="matrix(0.95165841,0,0,0.95165841,19.556666,34.893956)">
      <g
         transform="matrix(1.25,0,0,-1.25,540.40662,-865.21598)"
         id="g2995">
        <path
           id="path2997"
           style="fill:none;stroke:#ec6608;stroke-width:14;stroke-linecap:round;stroke-linejoin:miter;stroke-miterlimit:4;stroke-opacity:1;stroke-dasharray:none"
           d="M 0,0 -369.423,0"
           inkscape:connector-curvature="0" />
      </g>
      <g
         transform="matrix(1.25,0,0,-1.25,-689.60838,2028.0024)"
         id="g2999">
        <g
           clip-path="url(#clipPath3003)"
           id="g3001">
          <g
             transform="translate(1472.2703,131.4651)"
             id="g3007">
            <path
               id="path3009"
               style="fill:#ffffff;fill-opacity:1;fill-rule:nonzero;stroke:none"
               d="m 0,0 0.618,4.633 0.926,4.325 1.545,2.163 0.926,4.633 1.854,3.707 2.471,0.926 4.017,0.31 c 0,0 6.487,-0.927 7.413,-0.927 0.927,0 8.34,-0.309 8.34,-0.309 l 5.87,0.926 3.088,-1.853 1.545,-5.56 3.707,-7.723 c 0,0 0.926,-3.705 1.544,-4.633 0.618,-0.928 3.708,-12.975 4.635,-13.593 0.926,-0.618 10.811,-5.869 10.811,-5.869 l 8.341,1.545 1.235,4.942 4.016,1.545 6.178,-4.016 c 0,0 6.178,-15.754 6.796,-16.681 0.618,-0.926 0.926,-10.194 0.926,-10.194 l 0,-5.251 4.325,-4.633 c 0,0 -2.13,3.057 0.927,0 4.634,-4.634 36.759,23.786 -0.309,53.749 l -5.239,0.298 -5.415,-0.052 -4.99,2.919 -1.008,1.645 -0.053,5.308 5.255,1.168 2.336,0.742 1.963,-0.53 4.619,-5.255 3.077,-3.715 3.173,-2.945 11.979,-14.725 3.494,-9.982 -2.495,-17.47 -8.985,-12.229 -14.475,-3.743 -17.153,-2.015 -49.486,0 -33.61,1.114 -1.406,5.111 2.62,3.96 7.283,3.578 4.215,-1.598 1.087,1.662 5.046,13.99 -3.13,11.116 0.128,2.619 1.789,4.025 L 0,0 z"
               inkscape:connector-curvature="0" />
          </g>
          <g
             transform="translate(1432.4626,94.7107)"
             id="g3011">
            <path
               id="path3013"
               style="fill:#102d69;fill-opacity:1;fill-rule:nonzero;stroke:none"
               d="m 0,0 0,-16.42 c -9.122,-4.561 -17.787,-6.841 -26.453,-6.841 -23.945,0 -38.312,14.139 -38.312,31.926 0,19.157 16.419,35.12 37.4,35.12 5.244,0 9.121,-0.913 13.226,-2.28 2.965,-0.913 4.789,-2.054 6.614,-2.054 1.596,0 2.052,2.737 2.28,4.334 l 2.281,0 2.052,-22.121 -2.737,0 c -1.14,4.333 -3.192,7.982 -5.929,10.491 -4.333,4.332 -10.262,6.613 -17.104,6.613 -14.366,0 -22.804,-11.403 -22.804,-28.506 0,-16.875 10.262,-28.506 23.944,-28.506 4.106,0 7.755,0.912 12.316,2.965 l 0,16.876 c 0,5.473 -0.913,7.525 -8.667,7.525 l 0,2.509 28.963,0 0,-2.509 C -0.228,9.122 0,6.841 0,0 m -79.587,26.909 0,-49.03 -3.878,0 -49.029,50.627 c 0.228,-1.369 0.228,-2.509 0.228,-3.878 l 0,-30.786 c 0,-9.577 0,-12.998 8.665,-12.998 l 0,-2.508 -23.033,0 0,2.508 c 8.667,0 8.667,4.105 8.667,12.998 l 0,35.12 c 0,5.245 0,10.946 -9.122,10.946 l 0,2.509 21.664,0 40.364,-41.505 c -0.228,1.14 -0.228,1.825 -0.228,3.421 l 0,22.576 c 0,9.122 0.228,12.999 -8.438,12.999 l 0,2.509 23.033,0 0,-2.509 c -8.438,0 -8.893,-3.649 -8.893,-12.999 m -111.515,-48.573 0,2.508 c 5.472,0 9.35,0.456 9.35,8.437 l 0,42.189 c 0,8.21 -2.966,8.438 -9.35,8.438 l 0,2.509 32.383,0 0,-2.509 c -6.615,0 -9.351,-0.228 -9.351,-8.438 l 0,-42.189 c 0,-7.981 3.421,-8.437 9.351,-8.437 l 0,-2.508 -32.383,0 z"
               inkscape:connector-curvature="0" />
          </g>
          <g
             transform="translate(1560.1655,137.1273)"
             id="g3015">
            <path
               id="path3017"
               style="fill:#ec6608;fill-opacity:1;fill-rule:nonzero;stroke:none"
               d="m 0,0 c -0.455,0.912 -1.368,1.368 -2.052,1.368 -0.684,0.912 -1.597,2.053 -2.509,2.053 0.685,0 1.597,0.683 2.737,0.683 0.456,-1.14 1.369,-1.824 1.596,-2.736 L 0,0 z m 24.401,-34.435 c 0,10.034 -4.105,20.067 -11.402,27.365 C 9.807,-3.877 6.158,-2.28 3.421,0.912 2.052,2.28 0.912,3.649 0,5.473 -1.14,6.613 -1.824,7.297 -3.192,7.982 -2.964,7.297 -2.736,6.613 -2.509,5.929 l -0.227,0 c -1.14,0 -2.28,0.684 -3.193,1.368 L -5.016,8.21 C -5.245,8.665 -5.929,8.665 -6.385,8.665 -10.034,9.35 -13.454,7.297 -17.103,6.613 l 0,-0.456 c 2.28,-0.684 2.737,-3.421 4.105,-4.789 l 1.368,0 c 0.456,0 1.14,-0.456 1.596,-0.456 0,0.456 -0.456,1.368 -0.456,1.368 0.456,0.456 0.913,0.456 1.368,0 1.141,-0.684 2.737,0.456 3.877,-1.368 -1.368,0 -2.736,0 -3.877,-0.684 0,-0.228 0.685,-0.685 0.457,-1.14 -1.14,0.455 -2.509,0 -2.965,0.912 l -0.228,-0.228 c 1.368,-1.597 3.421,-2.964 5.473,-3.649 2.964,-0.456 5.473,0.912 8.437,0.228 10.491,-5.017 17.788,-16.875 17.788,-28.734 0,-16.875 -9.578,-23.716 -15.734,-23.716 -1.141,0 -2.966,0.683 -3.649,1.368 0.683,2.509 1.14,5.245 1.14,9.35 0,9.806 -3.877,20.296 -9.122,25.769 -2.509,2.509 -5.246,4.561 -8.21,4.561 -1.368,0 -2.737,0 -3.649,-1.14 -1.14,-0.912 -1.824,-2.737 -1.595,-3.878 -1.825,-1.367 -4.79,-2.052 -7.07,-2.052 -2.509,0 -5.701,0.912 -8.666,3.193 l 0,3.42 c -0.684,0.229 -2.965,1.597 -1.824,2.737 0.683,-0.228 1.14,-0.683 1.368,-0.912 -0.228,1.596 -0.228,3.421 -1.368,4.789 -0.457,0 -1.141,0 -1.825,0.456 -0.684,0.685 -1.368,1.597 -1.368,2.737 0.684,-1.14 1.824,-0.685 2.508,-1.369 -1.14,2.737 -0.684,3.878 -2.736,7.982 -0.457,2.052 -2.509,3.192 -3.877,4.561 -0.684,0.456 -0.912,1.14 -1.824,1.14 -0.912,0.228 -0.912,1.369 -0.912,2.052 0.227,0 0.912,-0.455 1.367,-0.683 -1.367,3.192 -2.28,6.613 -5.244,8.437 l -0.684,-0.456 -3.649,0 c 0.456,0.456 1.369,0.684 2.052,1.14 -0.683,0.684 -1.14,0.912 -2.509,0.912 -0.683,-0.228 -1.595,-0.912 -2.508,-0.912 l -0.227,0 c 0,0.684 -0.229,1.596 1.14,2.053 -1.369,0.228 -2.509,0.228 -4.106,0 -0.228,-1.141 -0.912,-1.824 -0.912,-2.737 -0.683,-0.456 -0.912,-1.141 -1.596,-1.824 0,1.368 0.684,2.737 0.913,4.104 -0.913,-0.227 -2.053,-0.912 -2.509,-0.912 -1.825,0.912 -4.105,1.825 -5.017,1.825 1.368,-0.913 0.684,-2.509 0.912,-3.649 l -0.912,0.456 c -0.229,0.913 -1.369,1.596 -1.596,2.737 -1.368,0 -2.28,-0.457 -3.421,-1.141 l 0,-0.228 c 0.684,0 1.596,-0.684 2.053,-1.368 -1.597,0 -2.737,0.684 -4.333,0.684 0,0 0,0.229 -0.228,0.229 -0.685,-0.229 -1.369,-0.913 -1.825,-1.369 -1.596,-1.368 -2.736,-2.509 -3.421,-4.561 0.456,0 1.14,0 1.368,-0.228 -0.912,-0.228 -1.368,-1.369 -2.28,-1.597 l 0,-3.42 c -0.684,-0.684 -1.597,-1.368 -2.052,-2.736 -1.141,-3.649 -1.369,-7.754 -1.369,-12.315 -0.228,-0.913 -0.683,-1.14 -1.14,-1.368 l 0,-3.649 c 0,0 1.368,1.369 2.052,1.824 l 0,-2.964 c -0.912,0 -1.595,-1.14 -1.595,-1.824 0,-0.913 0.227,-1.825 0.227,-2.737 0,-0.457 0,-0.457 0.228,-0.912 0,0.455 0.456,0.912 1.14,1.14 0,0 0.457,0.456 1.369,0.456 -0.684,-0.684 -0.912,-1.596 -1.369,-2.508 l -0.684,-0.685 c 0,0 -0.228,-0.455 -0.228,-0.684 0.912,-4.789 2.281,-8.893 4.106,-13.454 -1.825,-2.965 -3.878,-8.666 -5.246,-14.139 -1.14,1.14 -2.737,1.368 -4.104,1.368 -1.369,-0.228 -2.737,-0.685 -3.649,-2.052 -1.369,0.684 -3.193,0.456 -4.106,-0.456 -2.052,-1.824 -2.052,-2.737 -2.052,-4.105 -0.455,-0.456 -1.368,-1.597 -1.368,-3.193 0,-2.052 0.228,-3.421 1.368,-5.245 l 34.663,0 c -0.228,0.684 -0.683,1.597 -1.14,2.052 -0.684,1.369 -0.228,3.193 -0.228,4.561 0.685,1.369 1.368,2.737 2.28,3.877 0.229,0.684 0,0.684 0.229,0.912 l 1.596,0.457 c 0.912,0 1.596,0.684 2.736,0.684 0.685,-1.141 0.685,0.683 1.825,1.14 2.508,0.456 5.016,0 6.385,-1.824 0,-0.457 0.228,-0.457 0.228,-0.685 l -1.14,0 c -1.368,0.685 -2.965,1.369 -4.561,0.685 0,-0.685 -0.228,-0.685 -0.228,-1.369 l 0,-1.14 c 0.912,0 1.597,-0.912 2.509,-1.368 0.455,0.683 1.823,1.368 2.736,1.368 1.14,0 2.737,-0.685 2.737,-2.509 l 0,-2.508 c 0.912,-0.912 2.052,-1.14 3.192,-1.596 -0.456,-0.913 -1.14,-0.913 -1.824,-0.913 l -1.825,0 c -0.227,0.228 -0.684,0.228 -0.684,0.913 -0.683,-0.913 -1.14,-1.825 -1.596,-2.737 l 26.681,0 c -0.455,0.912 -0.912,1.597 -1.14,2.052 -0.455,1.369 -0.455,3.193 -0.455,4.561 l 2.507,3.421 c 1.369,0 2.509,0.456 5.018,0.685 0.456,0.683 0,1.14 2.052,1.14 1.597,0 2.737,-0.457 3.192,-0.685 0.228,-0.455 0.228,-0.455 0,-0.912 -0.455,-0.456 -1.367,0.457 -2.052,0.228 -0.455,-0.456 0.228,-0.684 0.228,-1.14 0.457,-0.456 -2.052,0.456 -2.052,0.456 0,0 -0.456,-1.368 -0.685,-1.824 0,0 0.913,-0.912 1.369,-1.369 0.456,-0.683 -0.684,-1.368 -0.684,-2.052 -0.456,0.228 -1.368,0.912 -1.368,0.684 -0.457,-1.824 0,-3.421 -0.229,-5.245 l 2.509,0 0.228,3.877 c 0.229,2.281 2.964,6.385 4.561,6.385 0.912,0 1.596,-0.456 2.281,-0.912 0.455,-0.912 1.595,-1.368 1.595,-1.825 0,-0.455 -0.683,-0.684 -1.823,-0.684 -0.457,0 -0.457,0.684 -1.141,1.141 l -1.368,-1.369 c 0,0 1.596,-1.368 1.596,-2.28 0,-1.14 -0.228,-1.596 -0.911,-2.281 l -1.369,2.737 c -0.685,0 -1.825,-1.368 -1.825,-2.052 0,-0.913 -0.455,-1.368 -0.455,-2.737 l 14.138,0 c 1.596,0 2.965,0.457 4.561,1.369 l 2.737,0 c 5.701,0 10.262,1.595 14.366,5.701 5.474,5.473 8.666,14.138 8.666,22.576 m -49.486,-20.981 -2.28,-0.227 c 0.912,-0.456 0.912,-1.597 0.912,-1.825 0,-0.683 -0.456,-1.368 -0.912,-1.824 -0.456,0.456 -0.456,1.141 -0.912,1.824 -0.457,0 -0.684,-1.14 -0.684,-1.595 0,-2.054 0.912,-3.649 1.596,-5.018 l 2.052,0 c -0.227,1.824 -0.684,3.421 -0.684,5.473 0,1.14 0.684,2.509 0.912,3.192 m -30.102,-2.735 c 0,0.911 -0.684,1.14 -1.596,1.14 -0.457,0 -1.597,-0.685 -1.597,-1.14 0,-0.912 -0.455,-5.93 -0.455,-5.93 l 1.595,0 c 0.685,2.052 2.053,4.789 2.053,5.93 m -5.017,0.228 c -0.228,0 0.229,-0.457 -2.052,1.824 -0.456,0 -1.14,-1.369 -1.14,-1.824 0,-1.825 0.455,-4.334 1.14,-6.158 l 1.824,0 c 0,2.052 0.228,4.333 0.228,6.158 m -3.877,-6.158 c -1.14,2.052 -1.368,5.245 -1.368,5.93 0,1.14 0,2.735 0.684,3.876 l -2.508,-0.456 c -0.684,-0.912 -0.912,-1.368 -0.912,-1.825 l 1.14,0.457 c 0.228,0 0.456,-0.457 0.684,-0.912 -0.228,-1.14 -1.596,-1.14 -2.052,-1.597 -0.684,-2.28 1.368,-3.649 1.596,-5.473 l 2.736,0 z m 57.24,68.87 -2.509,0 c -0.455,0.684 -1.14,0 -1.596,0 -0.456,0 -0.684,0 -1.596,0.684 1.368,0 2.052,0.684 3.192,1.14 0.913,-0.684 1.825,-0.912 2.509,-1.824 m -5.473,-26.225 c -1.597,0.455 -2.509,1.14 -3.877,1.14 -0.456,0 -2.508,-0.685 -2.736,-1.14 -0.685,0.912 0.455,2.736 1.368,3.192 0.912,0.456 1.368,0.229 1.824,0 0,-1.368 1.597,-0.684 2.509,-1.14 0.455,-0.685 0.684,-1.14 0.912,-2.052 m -0.228,-3.421 c -1.369,0 -1.596,0.227 -2.509,0.227 -1.14,0 -2.508,-0.455 -3.193,-1.595 -0.455,0.912 -0.228,1.368 0,2.052 0.685,0.684 1.826,1.597 2.737,1.597 1.596,0 2.965,-1.14 2.965,-2.281 m 5.245,-5.017 c -1.825,1.14 -4.561,1.824 -6.157,1.824 -0.912,0 -3.649,-1.14 -4.561,-2.052 l -0.457,2.052 c 1.369,0.228 1.369,1.368 2.281,1.368 0.684,0 1.597,0.229 2.28,0.229 0.685,0 1.14,0.456 1.369,0.456 1.14,0 0.684,-1.14 1.368,-1.14 0.684,0 1.14,0.455 1.597,0.455 1.14,0 2.052,-1.824 2.28,-3.192 m 0.684,-5.018 c -1.597,0 -3.192,0.457 -3.421,1.141 -0.456,0.456 0,1.368 -1.14,1.368 -0.456,0 -1.14,-0.684 -1.14,-0.684 -0.457,-0.228 -1.824,0.684 -1.824,0 0,-1.14 -0.913,-1.596 -2.053,-1.596 -0.456,0 -0.912,0 -1.368,0.228 l 0,2.28 c 2.965,0 2.736,0.912 4.105,0.912 0.912,0 1.596,-0.455 2.28,-0.455 1.14,0 0.457,0.455 1.597,0.455 1.14,0 1.596,-0.912 2.28,-1.14 0,-0.684 0.684,-1.596 0.684,-2.509 m -2.052,-5.016 c -0.685,0.228 -2.281,0.456 -2.281,1.14 0,0.912 -0.456,1.141 -1.596,1.141 -0.912,0 -1.596,-0.229 -2.965,-0.685 0,0 -0.684,0.913 -0.911,1.825 0.455,0.228 2.28,0.683 3.192,0.683 1.596,0 3.192,0 3.192,-0.683 0,-0.912 1.369,-1.14 1.369,-3.421 m -39.908,35.802 c 0,-0.227 -0.457,-2.28 -0.457,-2.28 l -1.824,-0.455 1.141,5.016 c 0.455,-0.912 1.14,-1.824 1.14,-2.281 m 44.24,-43.783 c 0,-1.369 0,-1.826 -0.683,-2.966 l -1.369,2.054 c 0.456,0.683 0.456,1.595 1.14,2.735 0.229,0 0.912,-1.595 0.912,-1.823 m -5.472,2.964 c -1.597,0 -0.685,3.192 -4.106,3.192 -0.683,0 -1.14,-1.14 -2.052,-1.367 0,0.227 0.228,1.595 0.228,1.595 0,0.457 0.228,1.369 1.141,1.825 1.823,0 1.368,-0.684 2.736,-1.14 0.684,-0.228 1.141,-0.685 2.053,-0.685 l 0,-3.42 z m -14.368,12.999 c -2.052,1.14 -3.192,3.192 -5.016,5.244 1.824,0 2.28,-1.824 3.649,-2.052 0.455,-0.456 0.912,-0.684 1.367,-1.368 l 0,-1.824 z m -19.612,16.875 c -1.367,0 -2.052,0.683 -2.736,2.052 0,0.685 -0.228,1.597 0,2.737 0.456,-0.912 0.456,-1.369 0.912,-1.825 0.912,0.456 0.912,-0.684 1.14,-0.912 0.229,-0.684 0.684,-1.369 0.684,-2.052 m 37.856,-38.996 c -0.456,-0.684 -0.456,-0.684 -0.684,-1.369 0,1.141 -1.368,1.825 -2.28,3.878 l 0.912,1.596 c 0.684,-0.456 1.596,-1.14 1.596,-2.28 0,0 -0.228,-0.685 0,-1.14 0,-0.229 0.456,-0.229 0.456,-0.685 m -4.561,6.613 c 0,-0.912 -0.227,-1.14 -0.456,-2.281 -1.596,0.229 -1.596,2.054 -1.825,2.281 -1.14,1.368 -2.736,0.228 -3.876,0.228 -0.456,1.369 0.229,1.369 0.229,2.281 0.683,0 1.367,0.456 2.052,0 1.14,0.456 1.824,-0.684 2.964,-0.684 0.228,-0.457 0.685,-1.597 0.912,-1.825 m -11.63,9.35 c 0,-0.912 -0.456,-1.596 -0.228,-2.509 -0.456,1.369 -1.368,2.737 -1.825,4.106 0,0.228 -0.227,0.228 0.228,0.455 0.229,0 1.141,0 1.141,-0.227 0.228,-0.457 0.684,-1.14 0.684,-1.825 m -20.068,18.015 c -0.229,-0.912 -1.14,0 -1.369,0 l -2.052,0 c -0.228,0.457 -0.456,0.685 -0.456,1.141 0.913,0.228 1.596,0.684 2.28,0.228 0.457,-0.684 0.913,-1.369 1.597,-1.369 m 5.017,-5.244 c -0.685,-0.684 -2.509,-0.912 -3.877,0.228 l 1.824,0.912 c 0.685,-0.684 1.597,-0.912 2.053,-1.14 m 11.858,-12.999 c 0,-1.368 -0.227,-2.964 -0.227,-4.561 -0.685,0 -0.685,0.456 -0.685,1.368 -0.228,1.369 -0.684,2.509 -1.14,3.878 -0.456,1.823 -1.596,3.42 -2.509,5.472 -0.227,0.912 -1.367,1.369 -2.281,2.053 1.141,0 2.281,0 3.194,-0.912 0,-0.457 0.227,-0.684 0.912,-1.369 1.596,0 1.14,-2.052 2.509,-2.964 -0.685,-0.685 -0.913,-1.14 -1.369,-1.597 0.684,-0.455 1.369,-0.683 1.596,-1.368 m -8.894,6.841 c 0,-0.684 -0.455,-0.912 -0.912,-1.367 0,0 -0.912,1.14 -0.912,1.595 0,0.912 0,1.369 0.229,2.053 0.683,-0.684 1.595,-1.596 1.595,-2.281 m 21.436,-20.751 c 0,-0.228 -0.455,-0.685 -0.455,-0.685 -1.14,0.685 -1.825,0.912 -3.192,0.912 0,0.913 -0.685,2.053 -1.141,2.053 -1.368,0 -1.14,-0.913 -2.28,-0.913 l 2.052,2.054 c 0.228,0.455 0.228,0.455 0.684,0.455 0.685,-0.455 0.912,-0.684 1.596,-0.684 0,-0.456 0,-0.685 -0.228,-1.368 0.684,-0.457 1.141,0.228 1.597,-0.457 0.684,-0.227 1.367,-0.455 1.367,-1.367 m -18.47,15.735 c 0,-0.457 -0.685,-0.912 -0.914,-0.912 0,0 -1.14,1.14 -1.367,2.28 -0.228,0.912 0.684,2.508 0.684,2.508 0.228,0 0.456,-0.456 0.683,-0.456 0.229,-0.228 0,-0.912 0.229,-1.596 0.685,-0.456 1.14,-1.369 0.685,-1.824 m -17.789,22.119 c -2.737,1.597 -5.701,2.737 -9.121,2.966 0,-0.685 0,-1.369 -0.229,-1.597 2.737,-1.369 5.246,-2.509 7.526,-4.561 l 0,-2.052 c -2.28,2.28 -4.789,4.561 -7.754,5.244 -0.227,-0.455 -1.14,-0.911 -1.367,-1.823 -1.597,1.14 -3.421,2.28 -5.246,2.508 -0.684,0 -1.14,2.509 -1.14,2.509 1.14,0.455 1.825,1.14 2.28,2.28 l 0.912,0 c 0.685,0 0.685,0.456 0.685,1.141 0,1.367 -2.965,1.367 -4.333,1.367 -1.596,0 -2.737,0 -3.649,-0.684 -0.456,0 -0.228,-0.683 -0.228,-1.14 0,-0.228 0.684,-0.684 0.684,-0.684 0.456,0 0.913,0.456 1.368,0.456 -0.228,-1.369 0.229,-2.052 1.597,-2.736 l -0.228,-2.28 c -2.737,0 -4.561,-1.141 -6.613,-2.054 -0.685,0.457 -1.14,1.14 -1.597,1.825 -2.736,-0.912 -7.525,-4.561 -7.525,-4.561 l 0,1.596 c 2.052,1.825 4.789,2.737 6.841,3.877 l 0,1.597 c -0.912,0.455 -1.825,0 -2.737,0 -2.052,-0.228 -4.104,-1.14 -5.473,-2.28 0,0.683 -0.228,1.595 -0.228,1.595 2.509,1.369 5.701,2.509 8.667,2.052 l 0,0.913 c -0.229,0.456 -0.229,1.141 -0.685,1.141 -1.369,1.367 -2.736,3.42 -2.736,4.788 l 0.912,0.456 c -0.457,1.369 -0.912,4.789 0,5.93 -1.369,0.683 -2.737,1.824 -3.193,2.736 -0.456,1.14 -0.913,1.825 -1.14,3.193 0.684,1.367 1.14,1.824 1.824,3.192 0.457,0 1.14,0.229 1.369,0.684 1.14,0.228 1.824,1.369 3.192,0.685 0.912,0 1.824,-0.457 2.509,-0.685 0,-0.455 0,-0.684 0.455,-1.14 1.369,0 1.369,-1.369 2.053,-2.509 0.684,-0.227 1.368,-0.227 1.824,-0.227 1.369,-0.457 2.509,-0.457 2.965,-1.14 1.824,1.14 3.648,1.367 5.701,1.14 0.228,0.684 0.684,1.596 0.913,2.736 0.227,-0.684 0.227,0 0.683,0 0.912,0.685 2.052,1.825 3.649,1.368 0.912,-0.683 2.509,-0.228 3.421,-1.368 0.684,-0.912 1.14,-2.281 1.824,-3.421 -0.684,-1.368 0,-3.192 -1.369,-3.876 l -1.367,-1.368 c -0.456,0 -0.456,-0.457 -1.14,-0.457 0.684,-1.596 0.227,-3.876 -0.457,-5.473 0.457,0.229 1.141,0.229 1.141,0.912 0.228,-0.228 0,-0.683 0,-0.912 l 0,-0.683 c 0,-1.141 -0.684,-2.281 -1.597,-3.194 -0.456,-1.367 -1.596,-3.192 -3.193,-3.421 l 0,-0.455 c 3.421,0 6.158,-0.912 9.35,-2.509 l 0,-1.597 z m 9.35,-14.366 -1.14,-0.456 c -2.508,0 -3.649,0.684 -4.789,1.596 0.912,0 2.052,1.141 2.052,1.141 1.14,-1.141 2.737,-2.053 3.877,-2.281 m -6.385,5.245 c -1.368,0 -2.965,-0.684 -3.648,0.684 0.455,0.229 0.912,0.912 1.367,1.369 l 2.281,-2.053 z m 18.7,-21.436 c 0,-1.141 -1.369,-2.509 -1.824,-3.421 0.455,1.14 0.455,3.421 0,3.421 -0.457,0.228 -1.369,0 -1.369,0.456 0,0.684 0.229,1.596 0.229,2.052 0,0.912 -0.685,1.369 -0.685,1.824 0,1.369 1.597,1.597 2.053,2.509 0.227,-0.912 0.227,-1.824 0.227,-2.964 0,-0.457 0.685,-1.825 0,-2.965 0,-0.684 1.369,-0.228 1.369,-0.912 m -5.245,2.508 c 0,-1.368 -0.912,-2.508 -1.14,-3.877 0,1.369 -0.228,2.509 -1.14,3.421 0,0.456 0.683,0.456 0.228,1.14 0,0 -1.369,0.685 -1.369,1.597 0,0.912 0.912,1.597 1.369,2.28 0,0.229 0.912,-0.456 0.912,-1.824 0,-0.228 0,-0.913 -0.228,-1.368 -0.229,-0.685 1.368,-0.685 1.368,-1.369 m -18.928,16.192 c -1.14,-0.228 -2.052,0.912 -3.193,1.368 -0.456,1.368 -0.456,2.736 -0.912,3.421 0.912,-0.685 2.965,-0.685 2.509,-2.737 0,-0.684 0.912,-1.14 1.596,-2.052 m 6.386,-6.386 c -0.913,0 -2.509,0 -3.421,0.685 -1.369,0.683 -1.825,1.14 -2.509,1.824 0.912,0.684 2.052,0.684 2.509,0.912 0.912,-0.912 1.824,-2.508 3.421,-3.421 M -83.693,2.736 -85.289,2.28 -85.06,3.421 c 0.455,0.683 0.683,1.368 1.367,2.052 l 0,-2.737 z m 29.419,-31.926 c -0.913,-0.228 -2.509,-0.684 -2.966,0.456 -1.368,2.052 -0.683,3.877 0,5.473 0.457,-1.369 0.685,-2.736 0.913,-3.876 0.228,-0.913 1.596,-1.369 2.053,-2.053 m -6.614,12.542 c -0.227,-1.367 -0.684,-3.421 -2.053,-4.333 0,0.912 -0.455,1.369 -0.912,2.053 -0.228,0 0,-0.684 -0.228,-0.684 0,-0.457 -0.455,-1.369 -0.455,-2.281 -0.457,-0.228 -1.369,-0.683 -2.281,-0.228 l 0,0.685 c -0.228,0.455 -0.228,1.367 -0.228,1.824 l -0.228,0.228 c -0.684,-0.228 -0.684,-0.685 -0.684,-1.14 -0.228,-0.457 -0.685,-0.912 -0.685,-1.597 -0.912,0 -1.368,0.228 -2.052,0.685 l 0,2.052 c 0,0.456 0,0.456 -0.228,0.456 l -1.14,-1.141 c -0.912,0.685 -1.141,2.509 -1.141,3.649 3.649,2.052 8.21,1.369 10.947,0.229 0.456,-0.229 0.912,-0.229 1.368,-0.457 m 11.858,-18.471 -0.683,0 c -2.509,-0.913 -4.561,0.684 -6.614,2.052 1.14,0.456 2.737,0.684 4.105,0.684 l 0.684,-1.368 c 0.684,-0.228 1.825,-0.912 2.508,-1.368 m -34.206,34.662 -1.141,-1.368 c 0.229,-2.281 -0.683,-3.876 -0.683,-5.928 l -1.142,3.647 c 0.229,0.914 0.457,1.826 1.142,2.966 l 1.824,0.683 z m 23.488,-29.645 c -1.14,0.684 -3.193,0.912 -2.736,2.28 0.455,1.14 1.14,1.369 1.596,1.825 0.228,-1.597 0.456,-2.737 1.14,-4.105 m 21.209,-23.489 -0.229,0 c -0.456,0.684 -0.683,1.369 -1.14,1.369 0.684,2.507 -0.684,4.561 -1.14,6.613 l 0,0.684 c 0.684,-1.141 2.509,-2.281 2.28,-3.421 0.229,-2.052 0.229,-3.876 0.229,-5.245 m -5.246,8.666 c -1.14,0 -2.052,0 -2.736,1.14 -0.228,0 -0.685,0.685 -0.912,0.228 -1.14,-0.912 -2.28,0.684 -3.649,0.457 -0.685,-0.685 -1.368,-1.141 -2.508,-1.369 l 0,0.228 c 0,0.684 0.456,1.368 1.368,1.824 1.368,-0.456 2.509,2.509 3.876,0.912 0.685,-0.228 1.369,-0.228 1.825,-0.228 1.596,-0.684 2.052,-2.052 2.736,-3.192 m -20.98,18.472 c 0,-1.597 -0.228,-3.649 -1.824,-4.333 l -0.456,2.28 c 0.684,0.456 1.369,0.912 2.28,2.053 m 7.754,-10.034 c -0.457,-0.457 -1.824,-0.912 -2.737,-0.912 -1.367,1.14 -2.281,2.507 -3.648,4.332 l 3.648,-0.684 c 0.685,-0.456 2.053,-2.053 2.737,-2.736 m 13.683,-12.999 c -0.912,0.685 -2.281,0.685 -2.737,1.825 -0.912,0.227 -1.596,0.227 -2.736,0.227 -0.912,-0.227 -2.053,-0.227 -2.966,-0.227 -0.227,0 0,0.227 -0.455,0.455 -1.368,-0.455 -2.737,-0.455 -4.105,-1.824 l 1.14,2.736 c 0.913,0 1.597,0.457 2.053,0.457 0.912,0.228 1.596,0.228 2.28,0.228 l 0,-0.228 c 2.508,0 5.473,0.228 7.297,-1.824 l 0.229,-1.825 z m -26.226,19.384 c -1.368,1.368 -2.508,2.508 -2.508,3.877 0.684,0 1.368,0 2.052,-0.457 0,-1.14 0.456,-2.052 0.456,-3.42 m -4.332,6.613 -0.685,-2.964 c -0.684,1.368 -1.367,2.737 -1.596,4.332 l 2.281,-1.368 z m 32.838,-30.786 c -0.228,-0.456 -0.684,-1.824 -0.912,-2.736 -0.457,1.368 -0.912,3.42 -2.509,3.42 -0.228,0.912 -0.456,1.369 -1.368,2.053 l -1.824,0.228 c 0.228,-0.912 1.596,-0.912 0.684,-2.281 0.912,-0.684 1.596,-0.684 2.052,-1.825 0.456,-0.683 0,-1.595 0.228,-2.052 l -1.368,-0.683 c 0,1.14 0.228,3.42 -1.368,3.876 -1.368,-0.456 -1.597,1.368 -2.509,2.053 -0.456,0 -0.456,1.14 -1.14,0.684 -1.14,-0.684 -2.508,0 -3.649,-0.684 l 1.141,1.824 c 0.912,0.683 1.823,0.456 2.736,0.683 l 1.824,0.229 c 1.824,0 3.421,-0.912 5.245,-1.596 0.913,-0.456 1.368,-1.14 1.368,-2.28 0.457,-0.229 1.369,-0.229 1.369,-0.913 m -18.244,10.718 -0.456,0 c -0.227,0 -1.824,0.684 -2.281,1.14 -0.227,0.684 -0.227,1.369 -0.227,1.369 l 1.824,0 1.14,-2.509 z m -17.56,16.42 c -1.367,0.455 -2.964,1.824 -3.647,2.964 -0.457,0.912 -0.685,2.052 -0.685,2.737 0.912,0 1.597,-0.685 1.825,-1.14 l 0,-0.229 c 1.14,-1.368 2.28,-2.508 2.507,-4.332 m 10.947,-7.982 c -0.228,-1.368 -0.912,-1.825 -2.052,-3.42 -0.685,-0.457 -2.053,-0.685 -3.421,-1.369 0.228,0.684 0.912,0.912 1.368,1.596 0.456,0.685 1.368,1.825 1.597,2.508 1.14,0.685 1.596,0.685 2.508,0.685 m 16.875,-22.349 -0.683,-0.683 c -0.685,0.683 -0.229,2.508 -1.369,2.735 -1.14,0 -2.052,1.141 -2.508,1.369 l 0.912,0.456 c 0,0 0.456,0.229 0.911,0 0.457,-0.456 0.913,-0.684 0.913,-1.14 0.456,-0.685 1.141,0 1.596,-0.685 0.228,-0.683 0.457,-1.595 0.228,-2.052 m -20.98,24.173 c -0.684,-1.368 -1.368,-2.737 -2.736,-3.192 -0.685,0 -1.825,-0.457 -3.192,0 0.683,0.455 1.367,0.683 2.28,1.368 l 1.824,1.824 1.824,0 z m 4.561,-10.49 c -0.912,-0.684 -1.596,-0.684 -2.736,-0.456 l -1.369,1.824 3.421,0 0.684,-1.368 z m -16.647,17.332 c -1.14,-1.141 -2.281,-1.597 -2.737,-2.965 0,0.684 -0.227,1.368 -0.456,1.824 0.229,0.912 0.912,1.369 1.141,1.597 0.683,-0.228 1.14,-0.228 2.052,-0.456 m 2.737,-3.421 c 0,-0.912 -0.457,-2.052 -1.597,-3.193 -0.228,-0.228 -0.912,-0.684 -0.912,-0.684 0,1.368 0.684,2.508 0.684,3.649 0.685,0.228 1.368,0.684 1.825,0.228 m 3.192,-2.737 -0.912,-3.421 c -1.14,-0.912 -2.737,-0.455 -4.105,-0.455 1.825,0.455 3.192,2.508 4.105,3.876 0.227,0.228 0.456,0 0.912,0 m 1.141,-11.63 c 0,-0.684 -0.229,-3.42 -0.229,-3.42 -0.456,1.595 -1.597,3.192 -2.964,3.192 -0.685,0.684 -1.368,1.369 -1.597,2.052 -0.683,0.684 -1.368,0 -2.28,0.684 -0.912,0 -2.052,0 -2.964,-0.684 l 0,0.684 1.595,1.825 c 1.597,-0.228 3.649,0 4.106,-1.14 1.14,-0.685 2.28,-1.369 2.507,-1.825 l 0,-0.684 c 0.457,-0.228 1.369,-0.456 1.826,-0.684 m -1.141,-7.069 -1.596,-1.597 c -0.456,0.685 0,1.825 -0.684,2.509 0,0.456 0.455,0.683 0.228,0.912 -0.228,0.456 -2.965,1.368 -2.965,1.368 -0.912,0.684 -2.052,1.369 -2.964,2.281 -0.912,0.228 -1.597,-0.229 -2.737,-0.457 l 0,0.457 c 0.456,0.912 0.456,2.052 1.825,2.052 0.683,0 1.595,0 2.052,-0.684 0.912,0 1.368,-0.912 2.052,-1.14 1.14,-1.14 2.052,-1.597 2.737,-2.052 0,-0.685 0.227,-1.14 0.684,-1.369 1.368,0 0.912,-1.368 1.368,-2.28 m -3.42,-3.421 -0.685,-2.28 -1.596,4.104 c -1.825,1.825 -3.877,2.052 -5.017,2.965 -0.912,0.227 -0.912,-0.456 -1.369,0 0,0.456 0,1.141 0.685,1.824 l 1.367,0 1.369,-0.683 c 0.685,-0.685 2.28,-0.685 2.28,-2.054 0,-0.227 -0.227,-0.455 0.457,-1.367 l 2.28,-0.685 0.229,-1.824 z m -6.386,-2.28 c 0,-1.825 -2.965,-4.333 -2.965,-4.333 0,1.14 0.684,2.508 0.684,3.876 0,0 -0.912,0.912 -1.824,0.912 -0.685,-0.455 -0.685,-0.912 -0.912,-1.595 -0.684,-1.369 -2.053,-2.737 -2.28,-4.106 -0.228,0 -0.228,0.228 -0.228,0.228 0,2.281 0.228,6.158 1.595,7.754 1.14,1.368 2.054,1.368 3.421,1.596 l 1.14,-0.228 -0.912,-1.368 c 0.912,-0.456 2.281,-1.368 2.281,-2.736 m -7.982,1.368 c 0,-0.913 -0.228,-1.825 -0.684,-2.508 -0.228,0.911 -0.912,2.052 -2.052,2.052 -0.913,-1.824 -1.14,-2.509 -0.228,-5.245 -0.685,-0.685 -1.14,-0.913 -2.052,-1.368 -0.457,0.912 -0.457,2.508 -0.457,3.42 0,1.596 0.229,3.193 0.684,4.561 0.685,0.684 1.14,1.824 1.825,2.509 l 2.509,0 c -1.141,0 -1.141,-1.14 -1.141,-1.825 0.684,-0.228 1.596,-0.456 1.596,-1.596 m -5.929,-2.508 c -0.227,0 -0.912,0.683 -1.596,0.683 -0.685,-1.368 0,-2.28 0,-3.876 0,-0.685 -0.228,-1.368 -0.228,-1.368 -0.457,0 -1.369,0.912 -1.597,1.824 l 0,3.648 2.053,2.509 c 1.368,-0.912 1.824,-2.28 1.368,-3.42 m 47.206,63.624 c 0.456,1.14 0.456,3.192 -0.456,4.332 -0.456,0.912 -1.597,1.369 -2.737,2.281 l -1.597,-0.912 c -0.912,-0.457 -1.367,-1.369 -1.367,-2.509 1.595,-0.683 3.192,-2.508 3.876,-3.876 l 0.685,0 c 0.684,0.684 1.14,0 1.596,0.684 m -7.754,-1.369 c 0,0.685 -0.228,0.685 -0.456,0.685 -1.141,0 -1.141,1.824 -2.053,1.368 -0.455,0 -0.912,0.456 -1.595,0 0,-0.228 0,-0.228 0.455,-0.228 1.14,0 0.685,-1.596 1.597,-1.825 l 2.052,0 z m 3.649,-2.736 c 0,0 0.456,0 0,0.228 L -61.8,2.28 c -0.456,-0.684 -1.596,-0.684 -1.596,-1.368 l -0.457,0 c 0.457,-1.824 0.457,-3.877 0.457,-5.929 0.912,-0.229 1.824,-0.684 1.824,-2.053 0.912,-0.456 1.824,-0.683 2.737,-1.368 0.455,0.228 0.684,0.912 0.912,1.597 -0.912,1.14 -2.965,0.455 -2.965,2.508 l -1.368,0.456 c 0,1.368 0,2.737 -0.228,3.649 L -62.256,0 c 0,-0.228 0.227,-0.457 0.684,-0.912 0.912,0 1.824,-0.228 2.737,0.455 0.455,0.229 0.455,1.369 0.912,1.369 0.455,0 0.912,0 1.14,0.456 m -11.402,4.789 c -0.457,0.456 -1.825,-0.228 -2.509,-0.456 -0.912,-0.228 -1.597,-0.912 -1.597,-1.597 l 2.509,0 c 0.228,0.685 1.14,1.597 1.597,2.053 m -5.018,2.508 c -0.228,2.281 -2.735,2.509 -3.876,3.421 l -0.913,0 c -1.824,-0.684 -2.28,-2.509 -2.507,-4.104 0.683,-2.053 2.052,-0.685 2.964,-2.053 0.912,0.684 3.192,2.281 4.332,2.736 m 13.455,-20.979 0,1.14 -2.281,0 -0.227,-0.228 2.508,-0.912 z M -70.01,0.912 c 0,0.456 -0.456,0.912 -1.14,1.368 l -5.017,0 -0.456,0 c 0,-0.912 0.685,-1.368 1.368,-1.368 0,-0.912 0.684,-1.14 0.912,-1.369 0.685,-0.455 0.912,-0.455 1.597,0 0.684,-0.455 0.912,0.457 1.14,0 0,-1.368 0,-2.052 -0.228,-3.192 -0.228,-1.597 -1.597,-1.368 -2.737,-2.052 0,-0.685 -0.684,-1.825 0,-2.509 0.685,0.457 1.14,0.684 2.28,1.14 0,0.684 0.685,1.369 1.597,1.824 0,2.054 0.684,4.106 0.684,6.158 m -1.824,-12.086 c -0.457,0.912 -1.597,0 -2.737,0.455 0,-0.455 0,-0.912 0.685,-1.368 0.683,0.685 1.824,0.913 2.052,0.913"
               inkscape:connector-curvature="0" />
          </g>
          <g
             transform="translate(473.7299,2314.5747)"
             id="g3019">
            <path
               id="path3021"
               style="fill:none;stroke:#ec6608;stroke-width:14;stroke-linecap:round;stroke-linejoin:miter;stroke-miterlimit:4;stroke-opacity:1;stroke-dasharray:none"
               d="m 0,0 -291.23,0 c 0,0 -56.693,0 -56.693,-60.027 l 0,-1963.584 c 0,0 0,-60.027 56.693,-60.027 l 1321.614,0 c 0,0 56.693,0 56.693,60.027 l 0,1963.584 c 0,0 0,60.027 -56.693,60.027 L 739.578,0"
               inkscape:connector-curvature="0" />
          </g>
          <g
             transform="translate(1036.363,1818.2947)"
             id="g3023">
            <path
               id="path3025"
               style="fill:#ffffff;fill-opacity:1;fill-rule:nonzero;stroke:none"
               d="m 0,0 c 0,-107.405 -87.068,-194.473 -194.473,-194.473 -107.405,0 -194.474,87.068 -194.474,194.473 0,107.405 87.069,194.473 194.474,194.473 C -87.068,194.473 0,107.405 0,0"
               inkscape:connector-curvature="0" />
          </g>
          <g
             transform="translate(1036.363,1818.2947)"
             id="g3027">
            <path
               id="path3029"
               style="fill:none;stroke:#ec6608;stroke-width:15.65699959;stroke-linecap:butt;stroke-linejoin:miter;stroke-miterlimit:10;stroke-opacity:1;stroke-dasharray:none"
               d="m 0,0 c 0,-107.405 -87.068,-194.473 -194.473,-194.473 -107.405,0 -194.474,87.068 -194.474,194.473 0,107.405 87.069,194.473 194.474,194.473 C -87.068,194.473 0,107.405 0,0 z"
               inkscape:connector-curvature="0" />
          </g>
          <g
             transform="translate(750.6064,1889.7253)"
             id="g3031">
            <path
               id="path3033"
               style="fill:#c3c3c3;fill-opacity:1;fill-rule:nonzero;stroke:none"
               d="m 0,0 c 3.133,1.032 5.685,1.873 8.382,2.762 0.65,3.581 1.29,7.11 1.99,10.966 -2.321,1.722 -4.632,3.438 -7.188,5.335 0.873,3.643 3.053,6.442 5.466,9.582 2.665,-1.393 5.217,-2.727 8.031,-4.197 3.044,2.211 6.113,4.44 9.54,6.929 -0.416,2.663 -0.861,5.512 -1.332,8.534 2.892,2.843 6.482,2.638 10.256,3.243 1.037,-3.211 1.924,-5.957 2.859,-8.851 3.835,-0.639 7.585,-1.265 11.607,-1.936 1.644,2.31 3.326,4.674 5.187,7.288 3.607,-0.995 6.259,-3.361 9.596,-5.336 -0.866,-1.786 -1.517,-3.169 -2.203,-4.534 -0.6,-1.196 -1.239,-2.372 -1.978,-3.779 2.146,-2.965 4.238,-5.856 6.555,-9.058 1.512,0.226 3.023,0.468 4.539,0.673 1.318,0.178 2.642,0.315 4.109,0.487 2.364,-3.152 2.699,-6.651 2.979,-10.54 C 76.83,6.914 75.434,6.284 74.004,5.747 72.743,5.274 71.444,4.904 69.96,4.424 69.344,0.843 68.736,-2.687 68.064,-6.59 c 1.105,-0.883 2.281,-1.872 3.509,-2.79 1.082,-0.808 2.222,-1.537 3.539,-2.439 -0.441,-3.835 -2.818,-6.478 -4.986,-9.241 -3.429,-0.139 -5.344,2.743 -8.66,3.508 -2.793,-2.027 -5.858,-4.251 -9.208,-6.682 0.39,-2.716 0.798,-5.556 1.229,-8.556 -3.058,-2.059 -6.34,-2.468 -9.753,-2.765 -2.433,2.259 -1.601,5.749 -3.662,8.353 -3.476,0.602 -7.228,1.252 -11.153,1.932 -1.724,-2.357 -3.434,-4.694 -5.201,-7.111 -3.702,0.634 -6.246,2.884 -9.386,4.976 0.583,1.455 1.087,2.869 1.714,4.227 0.651,1.409 1.423,2.762 2.195,4.244 -2.215,3.06 -4.31,5.957 -6.591,9.11 C 8.821,-10.173 5.978,-10.523 2.905,-10.902 0.717,-7.684 0.277,-4.219 0,0 m 50.818,6.175 c -1.6,5.734 -7.116,10.332 -13.994,8.763 -6.445,-1.47 -10.604,-7.335 -9.251,-13.634 1.558,-7.257 8.521,-10.278 13.69,-9.278 5.852,1.132 10.721,6.551 9.555,14.149"
               inkscape:connector-curvature="0" />
          </g>
          <g
             transform="translate(913.6002,1833.8306)"
             id="g3035">
            <path
               id="path3037"
               style="fill:#c3c3c3;fill-opacity:1;fill-rule:nonzero;stroke:none"
               d="m 0,0 c -3.933,0.899 -7.142,-1.806 -10.58,-1.788 -2.829,-4.464 0.359,-9.631 -2.969,-13.755 -4.331,-0.929 -8.786,-0.856 -12.811,-0.113 -2.379,2.033 -1.792,4.314 -1.88,6.397 -0.089,2.116 -0.02,4.239 -0.02,6.737 -3.961,1.14 -7.5,2.158 -11.513,3.313 -2.42,-3.53 -4.786,-6.984 -7.314,-10.672 -5.323,1.232 -9.295,4.122 -13.339,7.353 2.085,4.083 3.904,7.645 5.964,11.68 -2.795,2.808 -5.577,5.604 -8.471,8.512 -3.844,-2.031 -7.375,-3.897 -11.056,-5.842 -4.333,3.383 -6.323,7.877 -7.792,12.617 2.57,3.802 7.145,4.314 10.24,7.855 -0.801,3.249 -1.677,6.807 -2.652,10.768 -4.348,0.385 -8.504,0.752 -12.852,1.136 -1.676,5.15 -0.772,9.831 -0.655,14.397 4.459,2.573 9.061,0.348 13.416,2.188 0.92,3.441 1.875,7.013 2.908,10.877 -3.597,2.478 -7.039,4.85 -10.683,7.36 1.709,5.063 3.933,9.176 7.621,13.002 3.88,-1.913 7.656,-3.775 11.539,-5.689 2.762,2.809 5.367,5.459 8.274,8.415 -1.843,3.731 -3.705,7.5 -5.68,11.498 3.688,3.581 7.909,5.664 12.429,7.46 3.855,-2.336 4.483,-6.839 7.602,-9.919 3.892,-0.793 7.359,1.622 11.506,2.312 0.365,4.456 0.707,8.628 1.052,12.837 4.107,1.633 7.893,0.916 11.579,0.891 2.72,-0.018 3.869,-1.235 4.094,-3.935 0.264,-3.169 0.35,-6.353 0.53,-9.854 3.898,-0.979 7.461,-1.874 11.211,-2.815 2.41,3.577 4.621,6.86 6.866,10.194 5.518,-0.257 8.681,-4.194 12.766,-5.945 0.275,-5.5 -4.022,-8.305 -4.865,-12.786 2.726,-2.653 5.573,-5.421 8.564,-8.331 3.494,1.837 7.016,3.688 10.758,5.656 3.983,-3.317 5.871,-7.674 7.99,-12.037 -2.091,-4.375 -7.222,-4.661 -10.371,-8.278 0.05,-3.664 1.748,-7.299 2.742,-11.342 4.128,-0.254 8.107,-0.5 12.199,-0.753 2.382,-4.447 1.645,-8.982 0.935,-13.409 -0.148,-0.925 -1.799,-2.181 -2.852,-2.281 -3.177,-0.301 -6.401,-0.108 -9.9,-0.108 -1.603,-4.097 -2.698,-7.824 -3.273,-12.012 3.473,-2.22 6.822,-4.361 10.377,-6.633 -0.871,-5.468 -4.245,-9.173 -7.145,-13.663 -4.107,2.137 -7.65,3.98 -11.454,5.96 -3.328,-2.15 -5.814,-5.259 -8.521,-7.994 0.605,-4.612 4.772,-7.46 4.958,-12.308 C 15.992,-6.083 11.936,-8.382 7.428,-9.821 3.639,-7.329 3.001,-2.835 0,0 M -20.258,74.277 C -32.94,74.245 -42.626,64.469 -42.535,51.795 -42.444,39.195 -32.484,29.293 -20.009,29.402 -7.574,29.511 2.61,39.691 2.364,52.028 2.065,67.021 -10.511,74.997 -20.258,74.277"
               inkscape:connector-curvature="0" />
          </g>
          <g
             transform="translate(806.1371,1770.7185)"
             id="g3039">
            <path
               id="path3041"
               style="fill:#c3c3c3;fill-opacity:1;fill-rule:nonzero;stroke:none"
               d="m 0,0 c -3.95,1.746 -7.841,3.467 -12.094,5.347 -2.632,-2.197 -5.254,-4.386 -8.153,-6.806 -3.959,2.02 -6.581,5.313 -9.531,8.971 2.348,2.686 4.596,5.258 7.076,8.095 -1.704,4.126 -3.421,8.286 -5.338,12.931 -3.187,0.261 -6.596,0.541 -10.213,0.837 -2.475,4.128 -1.239,8.211 -0.887,12.732 3.992,0.303 7.407,0.562 11.004,0.835 1.805,4.245 3.57,8.396 5.463,12.848 -2.207,2.538 -4.465,5.137 -6.962,8.01 2.151,3.884 5.617,6.285 8.824,9.583 1.819,-1.495 3.232,-2.631 4.616,-3.802 1.213,-1.025 2.392,-2.09 3.808,-3.332 4.017,1.649 7.933,3.257 12.272,5.039 0.16,1.807 0.302,3.617 0.487,5.422 0.161,1.57 0.371,3.136 0.58,4.875 4.295,1.849 8.423,1.262 12.986,0.503 0.319,-1.987 0.657,-3.772 0.879,-5.571 0.195,-1.586 0.259,-3.187 0.401,-5.032 3.959,-1.708 7.86,-3.391 12.175,-5.252 1.326,1.028 2.793,2.11 4.194,3.271 1.233,1.023 2.391,2.136 3.798,3.402 4.301,-1.574 6.688,-5.051 9.27,-8.321 -0.793,-3.994 -4.65,-5.4 -6.455,-9.012 1.56,-3.785 3.273,-7.939 5.144,-12.479 3.242,-0.306 6.631,-0.626 10.21,-0.964 1.525,-4.1 1.084,-7.998 0.476,-12.017 -3.281,-2.178 -7.076,-0.247 -10.652,-1.9 C 41.716,24.371 39.922,20.225 38.045,15.887 40.284,13.242 42.505,10.62 44.799,7.91 43.038,3.817 39.736,1.508 36.449,-1.531 34.934,-0.454 33.442,0.52 32.051,1.622 30.607,2.765 29.26,4.031 27.767,5.335 23.62,3.632 19.696,2.021 15.426,0.267 M 7.871,49.894 c -7.058,-0.249 -13.896,-5.332 -14,-13.702 -0.098,-7.842 5.509,-14.27 13.15,-14.463 8.805,-0.223 14.226,6.968 14.511,13.208 0.323,7.064 -4.573,14.188 -13.661,14.957"
               inkscape:connector-curvature="0" />
          </g>
          <g
             transform="translate(832.7051,1838.8562)"
             id="g3043">
            <path
               id="path3045"
               style="fill:#ffffff;fill-opacity:1;fill-rule:nonzero;stroke:none"
               d="m 0,0 c 0,-13.516 -10.957,-24.473 -24.473,-24.473 -13.516,0 -24.472,10.957 -24.472,24.473 0,13.516 10.956,24.473 24.472,24.473 C -10.957,24.473 0,13.516 0,0"
               inkscape:connector-curvature="0" />
          </g>
          <g
             transform="translate(832.7051,1838.8562)"
             id="g3047">
            <path
               id="path3049"
               style="fill:none;stroke:#ec6608;stroke-width:3.91400003;stroke-linecap:butt;stroke-linejoin:miter;stroke-miterlimit:10;stroke-opacity:1;stroke-dasharray:none"
               d="m 0,0 c 0,-13.516 -10.957,-24.473 -24.473,-24.473 -13.516,0 -24.472,10.957 -24.472,24.473 0,13.516 10.956,24.473 24.472,24.473 C -10.957,24.473 0,13.516 0,0 z"
               inkscape:connector-curvature="0" />
          </g>
          <g
             transform="translate(773.8228,1767.2056)"
             id="g3051">
            <path
               id="path3053"
               style="fill:#ffffff;fill-opacity:1;fill-rule:nonzero;stroke:#ec6608;stroke-width:3.91400003;stroke-linecap:butt;stroke-linejoin:miter;stroke-miterlimit:10;stroke-opacity:1;stroke-dasharray:none"
               d="m 0,0 0,19.955 c 0,16.004 13.204,29.099 29.342,29.099 l 10.135,0 c 16.138,0 29.342,-13.095 29.342,-29.099 L 68.819,0"
               inkscape:connector-curvature="0" />
          </g>
          <g
             transform="translate(908.1233,1839.3794)"
             id="g3055">
            <path
               id="path3057"
               style="fill:#ffffff;fill-opacity:1;fill-rule:nonzero;stroke:none"
               d="m 0,0 c 0,-13.516 -10.957,-24.473 -24.473,-24.473 -13.516,0 -24.473,10.957 -24.473,24.473 0,13.516 10.957,24.472 24.473,24.472 C -10.957,24.472 0,13.516 0,0"
               inkscape:connector-curvature="0" />
          </g>
          <g
             transform="translate(908.1233,1839.3794)"
             id="g3059">
            <path
               id="path3061"
               style="fill:none;stroke:#ec6608;stroke-width:3.91400003;stroke-linecap:butt;stroke-linejoin:miter;stroke-miterlimit:10;stroke-opacity:1;stroke-dasharray:none"
               d="m 0,0 c 0,-13.516 -10.957,-24.473 -24.473,-24.473 -13.516,0 -24.473,10.957 -24.473,24.473 0,13.516 10.957,24.472 24.473,24.472 C -10.957,24.472 0,13.516 0,0 z"
               inkscape:connector-curvature="0" />
          </g>
          <g
             transform="translate(849.2406,1767.2056)"
             id="g3063">
            <path
               id="path3065"
               style="fill:#ffffff;fill-opacity:1;fill-rule:nonzero;stroke:#ec6608;stroke-width:3.91400003;stroke-linecap:butt;stroke-linejoin:miter;stroke-miterlimit:10;stroke-opacity:1;stroke-dasharray:none"
               d="m 0,0 0,19.955 c 0,16.004 13.204,29.099 29.342,29.099 l 10.135,0 c 16.138,0 29.342,-13.095 29.342,-29.099 L 68.819,0"
               inkscape:connector-curvature="0" />
          </g>
          <g
             transform="translate(763.3761,1838.8562)"
             id="g3067">
            <path
               id="path3069"
               style="fill:#ffffff;fill-opacity:1;fill-rule:nonzero;stroke:none"
               d="m 0,0 c 0,-13.516 -10.957,-24.473 -24.473,-24.473 -13.516,0 -24.473,10.957 -24.473,24.473 0,13.516 10.957,24.473 24.473,24.473 C -10.957,24.473 0,13.516 0,0"
               inkscape:connector-curvature="0" />
          </g>
          <g
             transform="translate(763.3761,1838.8562)"
             id="g3071">
            <path
               id="path3073"
               style="fill:none;stroke:#ec6608;stroke-width:3.91400003;stroke-linecap:butt;stroke-linejoin:miter;stroke-miterlimit:10;stroke-opacity:1;stroke-dasharray:none"
               d="m 0,0 c 0,-13.516 -10.957,-24.473 -24.473,-24.473 -13.516,0 -24.473,10.957 -24.473,24.473 0,13.516 10.957,24.473 24.473,24.473 C -10.957,24.473 0,13.516 0,0 z"
               inkscape:connector-curvature="0" />
          </g>
          <g
             transform="translate(704.4934,1767.2056)"
             id="g3075">
            <path
               id="path3077"
               style="fill:#ffffff;fill-opacity:1;fill-rule:nonzero;stroke:#ec6608;stroke-width:3.91400003;stroke-linecap:butt;stroke-linejoin:miter;stroke-miterlimit:10;stroke-opacity:1;stroke-dasharray:none"
               d="m 0,0 0,19.955 c 0,16.004 13.204,29.099 29.342,29.099 l 10.135,0 c 16.139,0 29.342,-13.095 29.342,-29.099 L 68.819,0"
               inkscape:connector-curvature="0" />
          </g>
          <g
             transform="translate(983.5409,1839.1179)"
             id="g3079">
            <path
               id="path3081"
               style="fill:#ffffff;fill-opacity:1;fill-rule:nonzero;stroke:none"
               d="m 0,0 c 0,-13.516 -10.957,-24.473 -24.473,-24.473 -13.516,0 -24.473,10.957 -24.473,24.473 0,13.516 10.957,24.472 24.473,24.472 C -10.957,24.472 0,13.516 0,0"
               inkscape:connector-curvature="0" />
          </g>
          <g
             transform="translate(983.5409,1839.1179)"
             id="g3083">
            <path
               id="path3085"
               style="fill:none;stroke:#ec6608;stroke-width:3.91400003;stroke-linecap:butt;stroke-linejoin:miter;stroke-miterlimit:10;stroke-opacity:1;stroke-dasharray:none"
               d="m 0,0 c 0,-13.516 -10.957,-24.473 -24.473,-24.473 -13.516,0 -24.473,10.957 -24.473,24.473 0,13.516 10.957,24.472 24.473,24.472 C -10.957,24.472 0,13.516 0,0 z"
               inkscape:connector-curvature="0" />
          </g>
          <g
             transform="translate(924.6582,1767.4673)"
             id="g3087">
            <path
               id="path3089"
               style="fill:#ffffff;fill-opacity:1;fill-rule:nonzero;stroke:#ec6608;stroke-width:3.91400003;stroke-linecap:butt;stroke-linejoin:miter;stroke-miterlimit:10;stroke-opacity:1;stroke-dasharray:none"
               d="m 0,0 0,19.955 c 0,16.004 13.204,29.098 29.342,29.098 l 10.135,0 c 16.139,0 29.343,-13.094 29.343,-29.098 L 68.82,0"
               inkscape:connector-curvature="0" />
          </g>
        </g>
      </g>
      <text
         style="font-size:15px"
         y="144.34766"
         x="-102.73313"
         id="text3091">
        <tspan
           id="tspan3093"
           sodipodi:role="line"
           y="144.34766"
           x="-102.73313 -33.853191 38.359646 109.33808 141.92642 214.13928 282.52548 350.91162 397.81912 430.40747 502.6203 573.59875 603.22449 685.31262 756.66138"
           style="font-size:123.44075012px;font-variant:normal;font-weight:normal;font-stretch:normal;writing-mode:lr-tb;fill:#ec6608;fill-opacity:1;fill-rule:nonzero;stroke:none;font-family:ING Me;-inkscape-font-specification:INGMe-Bold">E<tspan
   style="font-weight:bold"
   id="tspan3486">ngineering Day</tspan>
</tspan>
      </text>
      <g
         transform="matrix(1.25,0,0,-1.25,-689.60838,2028.0024)"
         id="g3095">
        <g
           clip-path="url(#clipPath3099)"
           id="g3097">
          <g
             transform="translate(224.1027,2240.3936)"
             id="g3103">
            <path
               id="path3105"
               style="fill:none;stroke:#ec6608;stroke-width:12.62199974;stroke-linecap:round;stroke-linejoin:miter;stroke-miterlimit:4;stroke-opacity:1;stroke-dasharray:none"
               d="m 0,0 c 0,0 -33.224,0 -33.224,-33.224 l 0,-100.949 c 0,0 0,-33.223 33.224,-33.223 l 100.949,0 c 0,0 33.224,0 33.224,33.223 l 0,100.949 c 0,0 0,33.224 -33.224,33.224 L 0,0 z"
               inkscape:connector-curvature="0" />
          </g>
          <g
             transform="translate(1343.4718,2240.3936)"
             id="g3107">
            <path
               id="path3109"
               style="fill:none;stroke:#ec6608;stroke-width:12.62199974;stroke-linecap:round;stroke-linejoin:miter;stroke-miterlimit:4;stroke-opacity:1;stroke-dasharray:none"
               d="m 0,0 c 0,0 -33.224,0 -33.224,-33.224 l 0,-100.949 c 0,0 0,-33.223 33.224,-33.223 l 100.949,0 c 0,0 33.224,0 33.224,33.223 l 0,100.949 c 0,0 0,33.224 -33.224,33.224 L 0,0 z"
               inkscape:connector-curvature="0" />
          </g>
          <g
             transform="translate(224.1027,2028.3508)"
             id="g3111">
            <path
               id="path3113"
               style="fill:none;stroke:#ec6608;stroke-width:12.62199974;stroke-linecap:round;stroke-linejoin:miter;stroke-miterlimit:4;stroke-opacity:1;stroke-dasharray:none"
               d="m 0,0 c 0,0 -33.224,0 -33.224,-33.224 l 0,-100.949 c 0,0 0,-33.223 33.224,-33.223 l 100.949,0 c 0,0 33.224,0 33.224,33.223 l 0,100.949 c 0,0 0,33.224 -33.224,33.224 L 0,0 z"
               inkscape:connector-curvature="0" />
          </g>
          <g
             transform="translate(224.1027,1820.0636)"
             id="g3115">
            <path
               id="path3117"
               style="fill:none;stroke:#ec6608;stroke-width:12.62199974;stroke-linecap:round;stroke-linejoin:miter;stroke-miterlimit:4;stroke-opacity:1;stroke-dasharray:none"
               d="m 0,0 c 0,0 -33.224,0 -33.224,-33.224 l 0,-100.949 c 0,0 0,-33.224 33.224,-33.224 l 100.949,0 c 0,0 33.224,0 33.224,33.224 l 0,100.949 c 0,0 0,33.224 -33.224,33.224 L 0,0 z"
               inkscape:connector-curvature="0" />
          </g>
          <g
             transform="translate(1343.4718,1945.3425)"
             id="g3119">
            <path
               id="path3121"
               style="fill:none;stroke:#ec6608;stroke-width:12.62199974;stroke-linecap:round;stroke-linejoin:miter;stroke-miterlimit:4;stroke-opacity:1;stroke-dasharray:none"
               d="m 0,0 c 0,0 -33.224,0 -33.224,-33.224 l 0,-100.949 c 0,0 0,-33.224 33.224,-33.224 l 100.949,0 c 0,0 33.224,0 33.224,33.224 l 0,100.949 c 0,0 0,33.224 -33.224,33.224 L 0,0 z"
               inkscape:connector-curvature="0" />
          </g>
          <g
             transform="translate(1343.4718,1339.3569)"
             id="g3123">
            <path
               id="path3125"
               style="fill:none;stroke:#ec6608;stroke-width:12.62199974;stroke-linecap:round;stroke-linejoin:miter;stroke-miterlimit:4;stroke-opacity:1;stroke-dasharray:none"
               d="m 0,0 c 0,0 -33.224,0 -33.224,-33.224 l 0,-100.949 c 0,0 0,-33.224 33.224,-33.224 l 100.949,0 c 0,0 33.224,0 33.224,33.224 l 0,100.949 c 0,0 0,33.224 -33.224,33.224 L 0,0 z"
               inkscape:connector-curvature="0" />
          </g>
          <g
             transform="translate(224.1027,1611.7764)"
             id="g3127">
            <path
               id="path3129"
               style="fill:none;stroke:#ec6608;stroke-width:12.62199974;stroke-linecap:round;stroke-linejoin:miter;stroke-miterlimit:4;stroke-opacity:1;stroke-dasharray:none"
               d="m 0,0 c 0,0 -33.224,0 -33.224,-33.224 l 0,-100.949 c 0,0 0,-33.224 33.224,-33.224 l 100.949,0 c 0,0 33.224,0 33.224,33.224 l 0,100.949 c 0,0 0,33.224 -33.224,33.224 L 0,0 z"
               inkscape:connector-curvature="0" />
          </g>
          <g
             transform="translate(1343.4718,1044.658)"
             id="g3131">
            <path
               id="path3133"
               style="fill:none;stroke:#ec6608;stroke-width:12.62199974;stroke-linecap:round;stroke-linejoin:miter;stroke-miterlimit:4;stroke-opacity:1;stroke-dasharray:none"
               d="m 0,0 c 0,0 -33.224,0 -33.224,-33.224 l 0,-100.949 c 0,0 0,-33.223 33.224,-33.223 l 100.949,0 c 0,0 33.224,0 33.224,33.223 l 0,100.949 c 0,0 0,33.224 -33.224,33.224 L 0,0 z"
               inkscape:connector-curvature="0" />
          </g>
          <g
             transform="translate(224.1027,1402.7764)"
             id="g3135">
            <path
               id="path3137"
               style="fill:none;stroke:#ec6608;stroke-width:12.62199974;stroke-linecap:round;stroke-linejoin:miter;stroke-miterlimit:4;stroke-opacity:1;stroke-dasharray:none"
               d="m 0,0 c 0,0 -33.224,0 -33.224,-33.224 l 0,-100.949 c 0,0 0,-33.223 33.224,-33.223 l 100.949,0 c 0,0 33.224,0 33.224,33.223 l 0,100.949 c 0,0 0,33.224 -33.224,33.224 L 0,0 z"
               inkscape:connector-curvature="0" />
          </g>
          <g
             transform="translate(1343.4718,1646.2021)"
             id="g3139">
            <path
               id="path3141"
               style="fill:none;stroke:#ec6608;stroke-width:12.62199974;stroke-linecap:round;stroke-linejoin:miter;stroke-miterlimit:4;stroke-opacity:1;stroke-dasharray:none"
               d="m 0,0 c 0,0 -33.224,0 -33.224,-33.224 l 0,-100.949 c 0,0 0,-33.223 33.224,-33.223 l 100.949,0 c 0,0 33.224,0 33.224,33.223 l 0,100.949 c 0,0 0,33.224 -33.224,33.224 L 0,0 z"
               inkscape:connector-curvature="0" />
          </g>
          <g
             transform="translate(1343.4718,743.886)"
             id="g3143">
            <path
               id="path3145"
               style="fill:none;stroke:#ec6608;stroke-width:12.62199974;stroke-linecap:round;stroke-linejoin:miter;stroke-miterlimit:4;stroke-opacity:1;stroke-dasharray:none"
               d="m 0,0 c 0,0 -33.224,0 -33.224,-33.224 l 0,-100.949 c 0,0 0,-33.224 33.224,-33.224 l 100.949,0 c 0,0 33.224,0 33.224,33.224 l 0,100.949 c 0,0 0,33.224 -33.224,33.224 L 0,0 z"
               inkscape:connector-curvature="0" />
          </g>
          <g
             transform="translate(1343.4718,455.7361)"
             id="g3147">
            <path
               id="path3149"
               style="fill:none;stroke:#ec6608;stroke-width:12.62199974;stroke-linecap:round;stroke-linejoin:miter;stroke-miterlimit:4;stroke-opacity:1;stroke-dasharray:none"
               d="m 0,0 c 0,0 -33.224,0 -33.224,-33.224 l 0,-100.949 c 0,0 0,-33.224 33.224,-33.224 l 100.949,0 c 0,0 33.224,0 33.224,33.224 l 0,100.949 c 0,0 0,33.224 -33.224,33.224 L 0,0 z"
               inkscape:connector-curvature="0" />
          </g>
          <g
             transform="translate(1030.5469,455.7361)"
             id="g3151">
            <path
               id="path3153"
               style="fill:none;stroke:#ec6608;stroke-width:12.62199974;stroke-linecap:round;stroke-linejoin:miter;stroke-miterlimit:4;stroke-opacity:1;stroke-dasharray:none"
               d="m 0,0 c 0,0 -33.224,0 -33.224,-33.224 l 0,-100.949 c 0,0 0,-33.224 33.224,-33.224 l 100.949,0 c 0,0 33.224,0 33.224,33.224 l 0,100.949 c 0,0 0,33.224 -33.224,33.224 L 0,0 z"
               inkscape:connector-curvature="0" />
          </g>
          <g
             transform="translate(748.8259,455.7361)"
             id="g3155">
            <path
               id="path3157"
               style="fill:none;stroke:#ec6608;stroke-width:12.62199974;stroke-linecap:round;stroke-linejoin:miter;stroke-miterlimit:4;stroke-opacity:1;stroke-dasharray:none"
               d="m 0,0 c 0,0 -33.224,0 -33.224,-33.224 l 0,-100.949 c 0,0 0,-33.224 33.224,-33.224 l 100.949,0 c 0,0 33.224,0 33.224,33.224 l 0,100.949 c 0,0 0,33.224 -33.224,33.224 L 0,0 z"
               inkscape:connector-curvature="0" />
          </g>
        </g>
      </g>
      <text
         style="font-size:15px"
         y="-613.64984"
         x="-388.53088"
         id="text3159">
        <tspan
           id="tspan3161"
           sodipodi:role="line"
           y="-613.64984"
           x="-388.53088 959.37213 1040.7697"
           style="font-size:144.57824707px;font-variant:normal;font-weight:normal;font-stretch:normal;writing-mode:lr-tb;fill:#ec6608;fill-opacity:1;fill-rule:nonzero;stroke:none;font-family:ING Me;-inkscape-font-specification:INGMe">814</tspan>
        <tspan
           id="tspan3163"
           y="172.13292"
           x="-388.53088"
           style="font-size:144.57824707px;font-variant:normal;font-weight:normal;font-stretch:normal;writing-mode:lr-tb;fill:#ec6608;fill-opacity:1;fill-rule:nonzero;stroke:none;font-family:ING Me;-inkscape-font-specification:INGMe">1</tspan>
        <tspan
           id="tspan3165"
           sodipodi:role="line"
           y="-88.252472"
           x="-427.71158 -346.31403"
           style="font-size:144.57824707px;font-variant:normal;font-weight:normal;font-stretch:normal;writing-mode:lr-tb;fill:#ec6608;fill-opacity:1;fill-rule:nonzero;stroke:none;font-family:ING Me;-inkscape-font-specification:INGMe">13</tspan>
        <tspan
           id="tspan3167"
           sodipodi:role="line"
           y="-244.83073"
           x="971.51672 1052.9143"
           style="font-size:144.57824707px;font-variant:normal;font-weight:normal;font-stretch:normal;writing-mode:lr-tb;fill:#ec6608;fill-opacity:1;fill-rule:nonzero;stroke:none;font-family:ING Me;-inkscape-font-specification:INGMe">10</tspan>
        <tspan
           id="tspan3169"
           sodipodi:role="line"
           y="-348.63791"
           x="-427.71158 -346.31403"
           style="font-size:144.57824707px;font-variant:normal;font-weight:normal;font-stretch:normal;writing-mode:lr-tb;fill:#ec6608;fill-opacity:1;fill-rule:nonzero;stroke:none;font-family:ING Me;-inkscape-font-specification:INGMe">11</tspan>
        <tspan
           id="tspan3171"
           y="433.38583"
           x="-388.53088"
           style="font-size:144.57824707px;font-variant:normal;font-weight:normal;font-stretch:normal;writing-mode:lr-tb;fill:#ec6608;fill-opacity:1;fill-rule:nonzero;stroke:none;font-family:ING Me;-inkscape-font-specification:INGMe">7</tspan>
        <tspan
           id="tspan3173"
           sodipodi:role="line"
           y="129.04858"
           x="971.37207 1052.7697"
           style="font-size:144.57824707px;font-variant:normal;font-weight:normal;font-stretch:normal;writing-mode:lr-tb;fill:#ec6608;fill-opacity:1;fill-rule:nonzero;stroke:none;font-family:ING Me;-inkscape-font-specification:INGMe">12</tspan>
        <tspan
           id="tspan3175"
           y="512.61475"
           x="1011.9986"
           style="font-size:144.57824707px;font-variant:normal;font-weight:normal;font-stretch:normal;writing-mode:lr-tb;fill:#ec6608;fill-opacity:1;fill-rule:nonzero;stroke:none;font-family:ING Me;-inkscape-font-specification:INGMe">9</tspan>
        <tspan
           id="tspan3177"
           y="881.00012"
           x="1011.9986"
           style="font-size:144.57824707px;font-variant:normal;font-weight:normal;font-stretch:normal;writing-mode:lr-tb;fill:#ec6608;fill-opacity:1;fill-rule:nonzero;stroke:none;font-family:ING Me;-inkscape-font-specification:INGMe">3</tspan>
        <tspan
           id="tspan3179"
           y="1256.9036"
           x="1011.9986"
           style="font-size:144.57824707px;font-variant:normal;font-weight:normal;font-stretch:normal;writing-mode:lr-tb;fill:#ec6608;fill-opacity:1;fill-rule:nonzero;stroke:none;font-family:ING Me;-inkscape-font-specification:INGMe">6</tspan>
        <tspan
           id="tspan3181"
           sodipodi:role="line"
           y="1617.0481"
           x="1011.9986 620.91449 268.72186"
           style="font-size:144.57824707px;font-variant:normal;font-weight:normal;font-stretch:normal;writing-mode:lr-tb;fill:#ec6608;fill-opacity:1;fill-rule:nonzero;stroke:none;font-family:ING Me;-inkscape-font-specification:INGMe">542</tspan>
      </text>
      <text
         style="font-size:15px"
         y="-752.67419"
         x="126.59262"
         id="text3315">
        <tspan
           id="tspan3317"
           sodipodi:role="line"
           y="-752.67419"
           x="126.59262 176.20294 228.21375 264.57687 296.22791 347.61636 399.62717 443.19177"
           style="font-size:88.90737915px;font-variant:normal;font-weight:bold;font-stretch:normal;writing-mode:lr-tb;fill:#ec6608;fill-opacity:1;fill-rule:nonzero;stroke:none;font-family:ING Me;-inkscape-font-specification:INGMe-Bold">Entrance</tspan>
      </text>
    </g>
  </g>
</svg>
