<?xml version="1.0" encoding="UTF-8" standalone="no"?>
<!-- Created with Inkscape (http://www.inkscape.org/) -->

<svg
   xmlns:dc="http://purl.org/dc/elements/1.1/"
   xmlns:cc="http://creativecommons.org/ns#"
   xmlns:rdf="http://www.w3.org/1999/02/22-rdf-syntax-ns#"
   xmlns:svg="http://www.w3.org/2000/svg"
   xmlns="http://www.w3.org/2000/svg"
   xmlns:sodipodi="http://sodipodi.sourceforge.net/DTD/sodipodi-0.dtd"
   xmlns:inkscape="http://www.inkscape.org/namespaces/inkscape"
   width="1832.2177"
   height="2609.6599"
   id="svg2"
   version="1.1"
   inkscape:version="0.48.5 r10040"
   sodipodi:docname="map.svg">
  <defs
     id="defs4">
    <clipPath
       id="clipPath3099"
       clipPathUnits="userSpaceOnUse">
      <path
         id="path3101"
         d="m 0,0 1683.78,0 0,2383.937 L 0,2383.937 0,0 z"
         inkscape:connector-curvature="0" />
    </clipPath>
    <clipPath
       id="clipPath3003"
       clipPathUnits="userSpaceOnUse">
      <path
         id="path3005"
         d="m 0,0 1683.78,0 0,2383.937 L 0,2383.937 0,0 z"
         inkscape:connector-curvature="0" />
    </clipPath>
  </defs>
  <sodipodi:namedview
     id="base"
     pagecolor="#ffffff"
     bordercolor="#666666"
     borderopacity="1.0"
     inkscape:pageopacity="0.0"
     inkscape:pageshadow="2"
     inkscape:zoom="0.35"
     inkscape:cx="1411.5826"
     inkscape:cy="1895.1212"
     inkscape:document-units="px"
     inkscape:current-layer="layer1"
     showgrid="false"
     inkscape:window-width="1536"
     inkscape:window-height="811"
     inkscape:window-x="-8"
     inkscape:window-y="-8"
     inkscape:window-maximized="1"
     fit-margin-top="0"
     fit-margin-left="0"
     fit-margin-right="0"
     fit-margin-bottom="0" />
  <metadata
     id="metadata7">
    <rdf:RDF>
      <cc:Work
         rdf:about="">
        <dc:format>image/svg+xml</dc:format>
        <dc:type
           rdf:resource="http://purl.org/dc/dcmitype/StillImage" />
        <dc:title />
      </cc:Work>
    </rdf:RDF>
  </metadata>
  <g
     inkscape:label="Layer 1"
     inkscape:groupmode="layer"
     id="layer1"
     transform="translate(541.11791,670.9699)">
    <g
       id="g3579"
       transform="translate(11.428571,188.57143)">
      <g
         transform="matrix(1.189573,0,0,-1.189573,533.83917,-788.49611)"
         id="g2995">
        <path
           id="path2997"
           style="fill:none;stroke:#ec6608;stroke-width:14;stroke-linecap:round;stroke-linejoin:miter;stroke-miterlimit:4;stroke-opacity:1;stroke-dasharray:none"
           d="M 0,0 -369.423,0"
           inkscape:connector-curvature="0" />
      </g>
      <g
         transform="matrix(1.189573,0,0,-1.189573,-636.71495,1964.8595)"
         id="g2999">
        <g
           clip-path="url(#clipPath3003)"
           id="g3001">
          <g
             transform="translate(1472.2703,131.4651)"
             id="g3007">
            <path
               id="path3009"
               style="fill:#ffffff;fill-opacity:1;fill-rule:nonzero;stroke:none"
               d="m 0,0 0.618,4.633 0.926,4.325 1.545,2.163 0.926,4.633 1.854,3.707 2.471,0.926 4.017,0.31 c 0,0 6.487,-0.927 7.413,-0.927 0.927,0 8.34,-0.309 8.34,-0.309 l 5.87,0.926 3.088,-1.853 1.545,-5.56 3.707,-7.723 c 0,0 0.926,-3.705 1.544,-4.633 0.618,-0.928 3.708,-12.975 4.635,-13.593 0.926,-0.618 10.811,-5.869 10.811,-5.869 l 8.341,1.545 1.235,4.942 4.016,1.545 6.178,-4.016 c 0,0 6.178,-15.754 6.796,-16.681 0.618,-0.926 0.926,-10.194 0.926,-10.194 l 0,-5.251 4.325,-4.633 c 0,0 -2.13,3.057 0.927,0 4.634,-4.634 36.759,23.786 -0.309,53.749 l -5.239,0.298 -5.415,-0.052 -4.99,2.919 -1.008,1.645 -0.053,5.308 5.255,1.168 2.336,0.742 1.963,-0.53 4.619,-5.255 3.077,-3.715 3.173,-2.945 11.979,-14.725 3.494,-9.982 -2.495,-17.47 -8.985,-12.229 -14.475,-3.743 -17.153,-2.015 -49.486,0 -33.61,1.114 -1.406,5.111 2.62,3.96 7.283,3.578 4.215,-1.598 1.087,1.662 5.046,13.99 -3.13,11.116 0.128,2.619 1.789,4.025 L 0,0 z"
               inkscape:connector-curvature="0" />
          </g>
          <g
             transform="translate(1432.4626,94.7107)"
             id="g3011" />
          <g
             transform="translate(1560.1655,137.1273)"
             id="g3015" />
          <g
             transform="translate(473.7299,2314.5747)"
             id="g3019">
            <path
               id="path3021"
               style="fill:none;stroke:#ec6608;stroke-width:14;stroke-linecap:round;stroke-linejoin:miter;stroke-miterlimit:4;stroke-opacity:1;stroke-dasharray:none"
               d="m 0,0 -291.23,0 c 0,0 -56.693,0 -56.693,-60.027 l 0,-1963.584 c 0,0 0,-60.027 56.693,-60.027 l 1321.614,0 c 0,0 56.693,0 56.693,60.027 l 0,1963.584 c 0,0 0,60.027 -56.693,60.027 L 739.578,0"
               inkscape:connector-curvature="0" />
          </g>
          <g
             transform="translate(1036.363,1818.2947)"
             id="g3023">
            <path
               id="path3025"
               style="fill:#ffffff;fill-opacity:1;fill-rule:nonzero;stroke:none"
               d="m 0,0 c 0,-107.405 -87.068,-194.473 -194.473,-194.473 -107.405,0 -194.474,87.068 -194.474,194.473 0,107.405 87.069,194.473 194.474,194.473 C -87.068,194.473 0,107.405 0,0"
               inkscape:connector-curvature="0" />
          </g>
          <g
             transform="translate(1036.363,1818.2947)"
             id="g3027">
            <path
               id="path3029"
               style="fill:none;stroke:#ec6608;stroke-width:15.65699959;stroke-linecap:butt;stroke-linejoin:miter;stroke-miterlimit:10;stroke-opacity:1;stroke-dasharray:none"
               d="m 0,0 c 0,-107.405 -87.068,-194.473 -194.473,-194.473 -107.405,0 -194.474,87.068 -194.474,194.473 0,107.405 87.069,194.473 194.474,194.473 C -87.068,194.473 0,107.405 0,0 z"
               inkscape:connector-curvature="0" />
          </g>
          <g
             transform="translate(750.6064,1889.7253)"
             id="g3031">
            <path
               id="path3033"
               style="fill:#c3c3c3;fill-opacity:1;fill-rule:nonzero;stroke:none"
               d="m 0,0 c 3.133,1.032 5.685,1.873 8.382,2.762 0.65,3.581 1.29,7.11 1.99,10.966 -2.321,1.722 -4.632,3.438 -7.188,5.335 0.873,3.643 3.053,6.442 5.466,9.582 2.665,-1.393 5.217,-2.727 8.031,-4.197 3.044,2.211 6.113,4.44 9.54,6.929 -0.416,2.663 -0.861,5.512 -1.332,8.534 2.892,2.843 6.482,2.638 10.256,3.243 1.037,-3.211 1.924,-5.957 2.859,-8.851 3.835,-0.639 7.585,-1.265 11.607,-1.936 1.644,2.31 3.326,4.674 5.187,7.288 3.607,-0.995 6.259,-3.361 9.596,-5.336 -0.866,-1.786 -1.517,-3.169 -2.203,-4.534 -0.6,-1.196 -1.239,-2.372 -1.978,-3.779 2.146,-2.965 4.238,-5.856 6.555,-9.058 1.512,0.226 3.023,0.468 4.539,0.673 1.318,0.178 2.642,0.315 4.109,0.487 2.364,-3.152 2.699,-6.651 2.979,-10.54 C 76.83,6.914 75.434,6.284 74.004,5.747 72.743,5.274 71.444,4.904 69.96,4.424 69.344,0.843 68.736,-2.687 68.064,-6.59 c 1.105,-0.883 2.281,-1.872 3.509,-2.79 1.082,-0.808 2.222,-1.537 3.539,-2.439 -0.441,-3.835 -2.818,-6.478 -4.986,-9.241 -3.429,-0.139 -5.344,2.743 -8.66,3.508 -2.793,-2.027 -5.858,-4.251 -9.208,-6.682 0.39,-2.716 0.798,-5.556 1.229,-8.556 -3.058,-2.059 -6.34,-2.468 -9.753,-2.765 -2.433,2.259 -1.601,5.749 -3.662,8.353 -3.476,0.602 -7.228,1.252 -11.153,1.932 -1.724,-2.357 -3.434,-4.694 -5.201,-7.111 -3.702,0.634 -6.246,2.884 -9.386,4.976 0.583,1.455 1.087,2.869 1.714,4.227 0.651,1.409 1.423,2.762 2.195,4.244 -2.215,3.06 -4.31,5.957 -6.591,9.11 C 8.821,-10.173 5.978,-10.523 2.905,-10.902 0.717,-7.684 0.277,-4.219 0,0 m 50.818,6.175 c -1.6,5.734 -7.116,10.332 -13.994,8.763 -6.445,-1.47 -10.604,-7.335 -9.251,-13.634 1.558,-7.257 8.521,-10.278 13.69,-9.278 5.852,1.132 10.721,6.551 9.555,14.149"
               inkscape:connector-curvature="0" />
          </g>
          <g
             transform="translate(913.6002,1833.8306)"
             id="g3035">
            <path
               id="path3037"
               style="fill:#c3c3c3;fill-opacity:1;fill-rule:nonzero;stroke:none"
               d="m 0,0 c -3.933,0.899 -7.142,-1.806 -10.58,-1.788 -2.829,-4.464 0.359,-9.631 -2.969,-13.755 -4.331,-0.929 -8.786,-0.856 -12.811,-0.113 -2.379,2.033 -1.792,4.314 -1.88,6.397 -0.089,2.116 -0.02,4.239 -0.02,6.737 -3.961,1.14 -7.5,2.158 -11.513,3.313 -2.42,-3.53 -4.786,-6.984 -7.314,-10.672 -5.323,1.232 -9.295,4.122 -13.339,7.353 2.085,4.083 3.904,7.645 5.964,11.68 -2.795,2.808 -5.577,5.604 -8.471,8.512 -3.844,-2.031 -7.375,-3.897 -11.056,-5.842 -4.333,3.383 -6.323,7.877 -7.792,12.617 2.57,3.802 7.145,4.314 10.24,7.855 -0.801,3.249 -1.677,6.807 -2.652,10.768 -4.348,0.385 -8.504,0.752 -12.852,1.136 -1.676,5.15 -0.772,9.831 -0.655,14.397 4.459,2.573 9.061,0.348 13.416,2.188 0.92,3.441 1.875,7.013 2.908,10.877 -3.597,2.478 -7.039,4.85 -10.683,7.36 1.709,5.063 3.933,9.176 7.621,13.002 3.88,-1.913 7.656,-3.775 11.539,-5.689 2.762,2.809 5.367,5.459 8.274,8.415 -1.843,3.731 -3.705,7.5 -5.68,11.498 3.688,3.581 7.909,5.664 12.429,7.46 3.855,-2.336 4.483,-6.839 7.602,-9.919 3.892,-0.793 7.359,1.622 11.506,2.312 0.365,4.456 0.707,8.628 1.052,12.837 4.107,1.633 7.893,0.916 11.579,0.891 2.72,-0.018 3.869,-1.235 4.094,-3.935 0.264,-3.169 0.35,-6.353 0.53,-9.854 3.898,-0.979 7.461,-1.874 11.211,-2.815 2.41,3.577 4.621,6.86 6.866,10.194 5.518,-0.257 8.681,-4.194 12.766,-5.945 0.275,-5.5 -4.022,-8.305 -4.865,-12.786 2.726,-2.653 5.573,-5.421 8.564,-8.331 3.494,1.837 7.016,3.688 10.758,5.656 3.983,-3.317 5.871,-7.674 7.99,-12.037 -2.091,-4.375 -7.222,-4.661 -10.371,-8.278 0.05,-3.664 1.748,-7.299 2.742,-11.342 4.128,-0.254 8.107,-0.5 12.199,-0.753 2.382,-4.447 1.645,-8.982 0.935,-13.409 -0.148,-0.925 -1.799,-2.181 -2.852,-2.281 -3.177,-0.301 -6.401,-0.108 -9.9,-0.108 -1.603,-4.097 -2.698,-7.824 -3.273,-12.012 3.473,-2.22 6.822,-4.361 10.377,-6.633 -0.871,-5.468 -4.245,-9.173 -7.145,-13.663 -4.107,2.137 -7.65,3.98 -11.454,5.96 -3.328,-2.15 -5.814,-5.259 -8.521,-7.994 0.605,-4.612 4.772,-7.46 4.958,-12.308 C 15.992,-6.083 11.936,-8.382 7.428,-9.821 3.639,-7.329 3.001,-2.835 0,0 M -20.258,74.277 C -32.94,74.245 -42.626,64.469 -42.535,51.795 -42.444,39.195 -32.484,29.293 -20.009,29.402 -7.574,29.511 2.61,39.691 2.364,52.028 2.065,67.021 -10.511,74.997 -20.258,74.277"
               inkscape:connector-curvature="0" />
          </g>
          <g
             transform="translate(806.1371,1770.7185)"
             id="g3039">
            <path
               id="path3041"
               style="fill:#c3c3c3;fill-opacity:1;fill-rule:nonzero;stroke:none"
               d="m 0,0 c -3.95,1.746 -7.841,3.467 -12.094,5.347 -2.632,-2.197 -5.254,-4.386 -8.153,-6.806 -3.959,2.02 -6.581,5.313 -9.531,8.971 2.348,2.686 4.596,5.258 7.076,8.095 -1.704,4.126 -3.421,8.286 -5.338,12.931 -3.187,0.261 -6.596,0.541 -10.213,0.837 -2.475,4.128 -1.239,8.211 -0.887,12.732 3.992,0.303 7.407,0.562 11.004,0.835 1.805,4.245 3.57,8.396 5.463,12.848 -2.207,2.538 -4.465,5.137 -6.962,8.01 2.151,3.884 5.617,6.285 8.824,9.583 1.819,-1.495 3.232,-2.631 4.616,-3.802 1.213,-1.025 2.392,-2.09 3.808,-3.332 4.017,1.649 7.933,3.257 12.272,5.039 0.16,1.807 0.302,3.617 0.487,5.422 0.161,1.57 0.371,3.136 0.58,4.875 4.295,1.849 8.423,1.262 12.986,0.503 0.319,-1.987 0.657,-3.772 0.879,-5.571 0.195,-1.586 0.259,-3.187 0.401,-5.032 3.959,-1.708 7.86,-3.391 12.175,-5.252 1.326,1.028 2.793,2.11 4.194,3.271 1.233,1.023 2.391,2.136 3.798,3.402 4.301,-1.574 6.688,-5.051 9.27,-8.321 -0.793,-3.994 -4.65,-5.4 -6.455,-9.012 1.56,-3.785 3.273,-7.939 5.144,-12.479 3.242,-0.306 6.631,-0.626 10.21,-0.964 1.525,-4.1 1.084,-7.998 0.476,-12.017 -3.281,-2.178 -7.076,-0.247 -10.652,-1.9 C 41.716,24.371 39.922,20.225 38.045,15.887 40.284,13.242 42.505,10.62 44.799,7.91 43.038,3.817 39.736,1.508 36.449,-1.531 34.934,-0.454 33.442,0.52 32.051,1.622 30.607,2.765 29.26,4.031 27.767,5.335 23.62,3.632 19.696,2.021 15.426,0.267 M 7.871,49.894 c -7.058,-0.249 -13.896,-5.332 -14,-13.702 -0.098,-7.842 5.509,-14.27 13.15,-14.463 8.805,-0.223 14.226,6.968 14.511,13.208 0.323,7.064 -4.573,14.188 -13.661,14.957"
               inkscape:connector-curvature="0" />
          </g>
          <g
             transform="translate(832.7051,1838.8562)"
             id="g3043">
            <path
               id="path3045"
               style="fill:#ffffff;fill-opacity:1;fill-rule:nonzero;stroke:none"
               d="m 0,0 c 0,-13.516 -10.957,-24.473 -24.473,-24.473 -13.516,0 -24.472,10.957 -24.472,24.473 0,13.516 10.956,24.473 24.472,24.473 C -10.957,24.473 0,13.516 0,0"
               inkscape:connector-curvature="0" />
          </g>
          <g
             transform="translate(832.7051,1838.8562)"
             id="g3047">
            <path
               id="path3049"
               style="fill:none;stroke:#ec6608;stroke-width:3.91400003;stroke-linecap:butt;stroke-linejoin:miter;stroke-miterlimit:10;stroke-opacity:1;stroke-dasharray:none"
               d="m 0,0 c 0,-13.516 -10.957,-24.473 -24.473,-24.473 -13.516,0 -24.472,10.957 -24.472,24.473 0,13.516 10.956,24.473 24.472,24.473 C -10.957,24.473 0,13.516 0,0 z"
               inkscape:connector-curvature="0" />
          </g>
          <g
             transform="translate(773.8228,1767.2056)"
             id="g3051">
            <path
               id="path3053"
               style="fill:#ffffff;fill-opacity:1;fill-rule:nonzero;stroke:#ec6608;stroke-width:3.91400003;stroke-linecap:butt;stroke-linejoin:miter;stroke-miterlimit:10;stroke-opacity:1;stroke-dasharray:none"
               d="m 0,0 0,19.955 c 0,16.004 13.204,29.099 29.342,29.099 l 10.135,0 c 16.138,0 29.342,-13.095 29.342,-29.099 L 68.819,0"
               inkscape:connector-curvature="0" />
          </g>
          <g
             transform="translate(908.1233,1839.3794)"
             id="g3055">
            <path
               id="path3057"
               style="fill:#ffffff;fill-opacity:1;fill-rule:nonzero;stroke:none"
               d="m 0,0 c 0,-13.516 -10.957,-24.473 -24.473,-24.473 -13.516,0 -24.473,10.957 -24.473,24.473 0,13.516 10.957,24.472 24.473,24.472 C -10.957,24.472 0,13.516 0,0"
               inkscape:connector-curvature="0" />
          </g>
          <g
             transform="translate(908.1233,1839.3794)"
             id="g3059">
            <path
               id="path3061"
               style="fill:none;stroke:#ec6608;stroke-width:3.91400003;stroke-linecap:butt;stroke-linejoin:miter;stroke-miterlimit:10;stroke-opacity:1;stroke-dasharray:none"
               d="m 0,0 c 0,-13.516 -10.957,-24.473 -24.473,-24.473 -13.516,0 -24.473,10.957 -24.473,24.473 0,13.516 10.957,24.472 24.473,24.472 C -10.957,24.472 0,13.516 0,0 z"
               inkscape:connector-curvature="0" />
          </g>
          <g
             transform="translate(849.2406,1767.2056)"
             id="g3063">
            <path
               id="path3065"
               style="fill:#ffffff;fill-opacity:1;fill-rule:nonzero;stroke:#ec6608;stroke-width:3.91400003;stroke-linecap:butt;stroke-linejoin:miter;stroke-miterlimit:10;stroke-opacity:1;stroke-dasharray:none"
               d="m 0,0 0,19.955 c 0,16.004 13.204,29.099 29.342,29.099 l 10.135,0 c 16.138,0 29.342,-13.095 29.342,-29.099 L 68.819,0"
               inkscape:connector-curvature="0" />
          </g>
          <g
             transform="translate(763.3761,1838.8562)"
             id="g3067">
            <path
               id="path3069"
               style="fill:#ffffff;fill-opacity:1;fill-rule:nonzero;stroke:none"
               d="m 0,0 c 0,-13.516 -10.957,-24.473 -24.473,-24.473 -13.516,0 -24.473,10.957 -24.473,24.473 0,13.516 10.957,24.473 24.473,24.473 C -10.957,24.473 0,13.516 0,0"
               inkscape:connector-curvature="0" />
          </g>
          <g
             transform="translate(763.3761,1838.8562)"
             id="g3071">
            <path
               id="path3073"
               style="fill:none;stroke:#ec6608;stroke-width:3.91400003;stroke-linecap:butt;stroke-linejoin:miter;stroke-miterlimit:10;stroke-opacity:1;stroke-dasharray:none"
               d="m 0,0 c 0,-13.516 -10.957,-24.473 -24.473,-24.473 -13.516,0 -24.473,10.957 -24.473,24.473 0,13.516 10.957,24.473 24.473,24.473 C -10.957,24.473 0,13.516 0,0 z"
               inkscape:connector-curvature="0" />
          </g>
          <g
             transform="translate(704.4934,1767.2056)"
             id="g3075">
            <path
               id="path3077"
               style="fill:#ffffff;fill-opacity:1;fill-rule:nonzero;stroke:#ec6608;stroke-width:3.91400003;stroke-linecap:butt;stroke-linejoin:miter;stroke-miterlimit:10;stroke-opacity:1;stroke-dasharray:none"
               d="m 0,0 0,19.955 c 0,16.004 13.204,29.099 29.342,29.099 l 10.135,0 c 16.139,0 29.342,-13.095 29.342,-29.099 L 68.819,0"
               inkscape:connector-curvature="0" />
          </g>
          <g
             transform="translate(983.5409,1839.1179)"
             id="g3079">
            <path
               id="path3081"
               style="fill:#ffffff;fill-opacity:1;fill-rule:nonzero;stroke:none"
               d="m 0,0 c 0,-13.516 -10.957,-24.473 -24.473,-24.473 -13.516,0 -24.473,10.957 -24.473,24.473 0,13.516 10.957,24.472 24.473,24.472 C -10.957,24.472 0,13.516 0,0"
               inkscape:connector-curvature="0" />
          </g>
          <g
             transform="translate(983.5409,1839.1179)"
             id="g3083">
            <path
               id="path3085"
               style="fill:none;stroke:#ec6608;stroke-width:3.91400003;stroke-linecap:butt;stroke-linejoin:miter;stroke-miterlimit:10;stroke-opacity:1;stroke-dasharray:none"
               d="m 0,0 c 0,-13.516 -10.957,-24.473 -24.473,-24.473 -13.516,0 -24.473,10.957 -24.473,24.473 0,13.516 10.957,24.472 24.473,24.472 C -10.957,24.472 0,13.516 0,0 z"
               inkscape:connector-curvature="0" />
          </g>
          <g
             transform="translate(924.6582,1767.4673)"
             id="g3087">
            <path
               id="path3089"
               style="fill:#ffffff;fill-opacity:1;fill-rule:nonzero;stroke:#ec6608;stroke-width:3.91400003;stroke-linecap:butt;stroke-linejoin:miter;stroke-miterlimit:10;stroke-opacity:1;stroke-dasharray:none"
               d="m 0,0 0,19.955 c 0,16.004 13.204,29.098 29.342,29.098 l 10.135,0 c 16.139,0 29.343,-13.094 29.343,-29.098 L 68.82,0"
               inkscape:connector-curvature="0" />
          </g>
        </g>
      </g>
      <text
         style="font-size:14.27487659px"
         y="172.26361"
         x="-78.210182"
         id="text3091">
        <tspan
           id="tspan3093"
           sodipodi:role="line"
           y="172.26361"
           x="-78.210182 -12.660008 56.061947 123.60917 154.62215 223.34412 288.42441 353.50467 398.14459 429.15756 497.87952 565.42676 593.6203 671.74017 739.63983"
           style="font-size:117.47342682px;font-variant:normal;font-weight:normal;font-stretch:normal;writing-mode:lr-tb;fill:#ec6608;fill-opacity:1;fill-rule:nonzero;stroke:none;font-family:ING Me;-inkscape-font-specification:INGMe-Bold">E<tspan
   style="font-weight:bold"
   id="tspan3486">ngineering Day</tspan>
</tspan>
      </text>
      <g
         transform="matrix(1.189573,0,0,-1.189573,-636.71495,1964.8595)"
         id="g3095">
        <g
           clip-path="url(#clipPath3099)"
           id="g3097">
          <g
             transform="translate(224.1027,2240.3936)"
             id="g3103">
            <path
               id="path3105"
               style="fill:none;stroke:#ec6608;stroke-width:12.62199974;stroke-linecap:round;stroke-linejoin:miter;stroke-miterlimit:4;stroke-opacity:1;stroke-dasharray:none"
               d="m 0,0 c 0,0 -33.224,0 -33.224,-33.224 l 0,-100.949 c 0,0 0,-33.223 33.224,-33.223 l 100.949,0 c 0,0 33.224,0 33.224,33.223 l 0,100.949 c 0,0 0,33.224 -33.224,33.224 L 0,0 z"
               inkscape:connector-curvature="0" />
          </g>
          <g
             transform="translate(1343.4718,2240.3936)"
             id="g3107">
            <path
               id="path3109"
               style="fill:none;stroke:#ec6608;stroke-width:12.62199974;stroke-linecap:round;stroke-linejoin:miter;stroke-miterlimit:4;stroke-opacity:1;stroke-dasharray:none"
               d="m 0,0 c 0,0 -33.224,0 -33.224,-33.224 l 0,-100.949 c 0,0 0,-33.223 33.224,-33.223 l 100.949,0 c 0,0 33.224,0 33.224,33.223 l 0,100.949 c 0,0 0,33.224 -33.224,33.224 L 0,0 z"
               inkscape:connector-curvature="0" />
          </g>
          <g
             transform="translate(224.1027,2028.3508)"
             id="g3111">
            <path
               id="path3113"
               style="fill:none;stroke:#ec6608;stroke-width:12.62199974;stroke-linecap:round;stroke-linejoin:miter;stroke-miterlimit:4;stroke-opacity:1;stroke-dasharray:none"
               d="m 0,0 c 0,0 -33.224,0 -33.224,-33.224 l 0,-100.949 c 0,0 0,-33.223 33.224,-33.223 l 100.949,0 c 0,0 33.224,0 33.224,33.223 l 0,100.949 c 0,0 0,33.224 -33.224,33.224 L 0,0 z"
               inkscape:connector-curvature="0" />
          </g>
          <g
             transform="translate(224.1027,1820.0636)"
             id="g3115">
            <path
               id="path3117"
               style="fill:none;stroke:#ec6608;stroke-width:12.62199974;stroke-linecap:round;stroke-linejoin:miter;stroke-miterlimit:4;stroke-opacity:1;stroke-dasharray:none"
               d="m 0,0 c 0,0 -33.224,0 -33.224,-33.224 l 0,-100.949 c 0,0 0,-33.224 33.224,-33.224 l 100.949,0 c 0,0 33.224,0 33.224,33.224 l 0,100.949 c 0,0 0,33.224 -33.224,33.224 L 0,0 z"
               inkscape:connector-curvature="0" />
          </g>
          <g
             transform="translate(1343.4718,1945.3425)"
             id="g3119">
            <path
               id="path3121"
               style="fill:none;stroke:#ec6608;stroke-width:12.62199974;stroke-linecap:round;stroke-linejoin:miter;stroke-miterlimit:4;stroke-opacity:1;stroke-dasharray:none"
               d="m 0,0 c 0,0 -33.224,0 -33.224,-33.224 l 0,-100.949 c 0,0 0,-33.224 33.224,-33.224 l 100.949,0 c 0,0 33.224,0 33.224,33.224 l 0,100.949 c 0,0 0,33.224 -33.224,33.224 L 0,0 z"
               inkscape:connector-curvature="0" />
          </g>
          <g
             transform="translate(1343.4718,1339.3569)"
             id="g3123">
            <path
               id="path3125"
               style="fill:none;stroke:#ec6608;stroke-width:12.62199974;stroke-linecap:round;stroke-linejoin:miter;stroke-miterlimit:4;stroke-opacity:1;stroke-dasharray:none"
               d="m 0,0 c 0,0 -33.224,0 -33.224,-33.224 l 0,-100.949 c 0,0 0,-33.224 33.224,-33.224 l 100.949,0 c 0,0 33.224,0 33.224,33.224 l 0,100.949 c 0,0 0,33.224 -33.224,33.224 L 0,0 z"
               inkscape:connector-curvature="0" />
          </g>
          <g
             transform="translate(224.1027,1611.7764)"
             id="g3127">
            <path
               id="path3129"
               style="fill:none;stroke:#ec6608;stroke-width:12.62199974;stroke-linecap:round;stroke-linejoin:miter;stroke-miterlimit:4;stroke-opacity:1;stroke-dasharray:none"
               d="m 0,0 c 0,0 -33.224,0 -33.224,-33.224 l 0,-100.949 c 0,0 0,-33.224 33.224,-33.224 l 100.949,0 c 0,0 33.224,0 33.224,33.224 l 0,100.949 c 0,0 0,33.224 -33.224,33.224 L 0,0 z"
               inkscape:connector-curvature="0" />
          </g>
          <g
             transform="translate(1343.4718,1044.658)"
             id="g3131">
            <path
               id="path3133"
               style="fill:none;stroke:#ec6608;stroke-width:12.62199974;stroke-linecap:round;stroke-linejoin:miter;stroke-miterlimit:4;stroke-opacity:1;stroke-dasharray:none"
               d="m 0,0 c 0,0 -33.224,0 -33.224,-33.224 l 0,-100.949 c 0,0 0,-33.223 33.224,-33.223 l 100.949,0 c 0,0 33.224,0 33.224,33.223 l 0,100.949 c 0,0 0,33.224 -33.224,33.224 L 0,0 z"
               inkscape:connector-curvature="0" />
          </g>
          <g
             transform="translate(224.1027,1402.7764)"
             id="g3135">
            <path
               id="path3137"
               style="fill:none;stroke:#ec6608;stroke-width:12.62199974;stroke-linecap:round;stroke-linejoin:miter;stroke-miterlimit:4;stroke-opacity:1;stroke-dasharray:none"
               d="m 0,0 c 0,0 -33.224,0 -33.224,-33.224 l 0,-100.949 c 0,0 0,-33.223 33.224,-33.223 l 100.949,0 c 0,0 33.224,0 33.224,33.223 l 0,100.949 c 0,0 0,33.224 -33.224,33.224 L 0,0 z"
               inkscape:connector-curvature="0" />
          </g>
          <g
             transform="translate(1343.4718,1646.2021)"
             id="g3139">
            <path
               id="path3141"
               style="fill:none;stroke:#ec6608;stroke-width:12.62199974;stroke-linecap:round;stroke-linejoin:miter;stroke-miterlimit:4;stroke-opacity:1;stroke-dasharray:none"
               d="m 0,0 c 0,0 -33.224,0 -33.224,-33.224 l 0,-100.949 c 0,0 0,-33.223 33.224,-33.223 l 100.949,0 c 0,0 33.224,0 33.224,33.223 l 0,100.949 c 0,0 0,33.224 -33.224,33.224 L 0,0 z"
               inkscape:connector-curvature="0" />
          </g>
          <g
             transform="translate(1343.4718,743.886)"
             id="g3143">
            <path
               id="path3145"
               style="fill:none;stroke:#ec6608;stroke-width:12.62199974;stroke-linecap:round;stroke-linejoin:miter;stroke-miterlimit:4;stroke-opacity:1;stroke-dasharray:none"
               d="m 0,0 c 0,0 -33.224,0 -33.224,-33.224 l 0,-100.949 c 0,0 0,-33.224 33.224,-33.224 l 100.949,0 c 0,0 33.224,0 33.224,33.224 l 0,100.949 c 0,0 0,33.224 -33.224,33.224 L 0,0 z"
               inkscape:connector-curvature="0" />
          </g>
          <g
             transform="translate(1343.4718,455.7361)"
             id="g3147">
            <path
               id="path3149"
               style="fill:none;stroke:#ec6608;stroke-width:12.62199974;stroke-linecap:round;stroke-linejoin:miter;stroke-miterlimit:4;stroke-opacity:1;stroke-dasharray:none"
               d="m 0,0 c 0,0 -33.224,0 -33.224,-33.224 l 0,-100.949 c 0,0 0,-33.224 33.224,-33.224 l 100.949,0 c 0,0 33.224,0 33.224,33.224 l 0,100.949 c 0,0 0,33.224 -33.224,33.224 L 0,0 z"
               inkscape:connector-curvature="0" />
          </g>
          <g
             transform="translate(1030.5469,455.7361)"
             id="g3151">
            <path
               id="path3153"
               style="fill:none;stroke:#ec6608;stroke-width:12.62199974;stroke-linecap:round;stroke-linejoin:miter;stroke-miterlimit:4;stroke-opacity:1;stroke-dasharray:none"
               d="m 0,0 c 0,0 -33.224,0 -33.224,-33.224 l 0,-100.949 c 0,0 0,-33.224 33.224,-33.224 l 100.949,0 c 0,0 33.224,0 33.224,33.224 l 0,100.949 c 0,0 0,33.224 -33.224,33.224 L 0,0 z"
               inkscape:connector-curvature="0" />
          </g>
          <g
             transform="translate(748.8259,455.7361)"
             id="g3155">
            <path
               id="path3157"
               style="fill:none;stroke:#ec6608;stroke-width:12.62199974;stroke-linecap:round;stroke-linejoin:miter;stroke-miterlimit:4;stroke-opacity:1;stroke-dasharray:none"
               d="m 0,0 c 0,0 -33.224,0 -33.224,-33.224 l 0,-100.949 c 0,0 0,-33.224 33.224,-33.224 l 100.949,0 c 0,0 33.224,0 33.224,33.224 l 0,100.949 c 0,0 0,33.224 -33.224,33.224 L 0,0 z"
               inkscape:connector-curvature="0" />
          </g>
        </g>
      </g>
      <text
         style="font-size:14.27487659px"
         y="-549.09106"
         x="-350.19202"
         id="text3159">
        <tspan
           id="tspan3161"
           sodipodi:role="line"
           y="-549.09106"
           x="-350.19202 932.55121 1010.0139"
           style="font-size:137.58911133px;font-variant:normal;font-weight:normal;font-stretch:normal;writing-mode:lr-tb;fill:#ec6608;fill-opacity:1;fill-rule:nonzero;stroke:none;font-family:ING Me;-inkscape-font-specification:INGMe">814</tspan>
        <tspan
           id="tspan3163"
           y="198.7057"
           x="-350.19202"
           style="font-size:137.58911133px;font-variant:normal;font-weight:normal;font-stretch:normal;writing-mode:lr-tb;fill:#ec6608;fill-opacity:1;fill-rule:nonzero;stroke:none;font-family:ING Me;-inkscape-font-specification:INGMe">1</tspan>
        <tspan
           id="tspan3165"
           sodipodi:role="line"
           y="-49.092251"
           x="-387.47867 -310.01599"
           style="font-size:137.58911133px;font-variant:normal;font-weight:normal;font-stretch:normal;writing-mode:lr-tb;fill:#ec6608;fill-opacity:1;fill-rule:nonzero;stroke:none;font-family:ING Me;-inkscape-font-specification:INGMe">13</tspan>
        <tspan
           id="tspan3167"
           sodipodi:role="line"
           y="-198.10127"
           x="944.1087 1021.5714"
           style="font-size:137.58911133px;font-variant:normal;font-weight:normal;font-stretch:normal;writing-mode:lr-tb;fill:#ec6608;fill-opacity:1;fill-rule:nonzero;stroke:none;font-family:ING Me;-inkscape-font-specification:INGMe">10</tspan>
        <tspan
           id="tspan3169"
           sodipodi:role="line"
           y="-296.89023"
           x="-387.47867 -310.01599"
           style="font-size:137.58911133px;font-variant:normal;font-weight:normal;font-stretch:normal;writing-mode:lr-tb;fill:#ec6608;fill-opacity:1;fill-rule:nonzero;stroke:none;font-family:ING Me;-inkscape-font-specification:INGMe">11</tspan>
        <tspan
           id="tspan3171"
           y="447.32922"
           x="-350.19202"
           style="font-size:137.58911133px;font-variant:normal;font-weight:normal;font-stretch:normal;writing-mode:lr-tb;fill:#ec6608;fill-opacity:1;fill-rule:nonzero;stroke:none;font-family:ING Me;-inkscape-font-specification:INGMe">7</tspan>
        <tspan
           id="tspan3173"
           sodipodi:role="line"
           y="157.70413"
           x="943.97107 1021.4338"
           style="font-size:137.58911133px;font-variant:normal;font-weight:normal;font-stretch:normal;writing-mode:lr-tb;fill:#ec6608;fill-opacity:1;fill-rule:nonzero;stroke:none;font-family:ING Me;-inkscape-font-specification:INGMe">12</tspan>
        <tspan
           id="tspan3175"
           y="522.72809"
           x="982.63367"
           style="font-size:137.58911133px;font-variant:normal;font-weight:normal;font-stretch:normal;writing-mode:lr-tb;fill:#ec6608;fill-opacity:1;fill-rule:nonzero;stroke:none;font-family:ING Me;-inkscape-font-specification:INGMe">9</tspan>
        <tspan
           id="tspan3177"
           y="873.30511"
           x="982.63367"
           style="font-size:137.58911133px;font-variant:normal;font-weight:normal;font-stretch:normal;writing-mode:lr-tb;fill:#ec6608;fill-opacity:1;fill-rule:nonzero;stroke:none;font-family:ING Me;-inkscape-font-specification:INGMe">3</tspan>
        <tspan
           id="tspan3179"
           y="1231.0367"
           x="982.63367"
           style="font-size:137.58911133px;font-variant:normal;font-weight:normal;font-stretch:normal;writing-mode:lr-tb;fill:#ec6608;fill-opacity:1;fill-rule:nonzero;stroke:none;font-family:ING Me;-inkscape-font-specification:INGMe">6</tspan>
        <tspan
           id="tspan3181"
           sodipodi:role="line"
           y="1573.7714"
           x="982.63367 610.45514 275.28809"
           style="font-size:137.58911133px;font-variant:normal;font-weight:normal;font-stretch:normal;writing-mode:lr-tb;fill:#ec6608;fill-opacity:1;fill-rule:nonzero;stroke:none;font-family:ING Me;-inkscape-font-specification:INGMe">542</tspan>
      </text>
      <text
         style="font-size:14.27487659px"
         y="-681.39478"
         x="140.0296"
         id="text3315">
        <tspan
           id="tspan3317"
           sodipodi:role="line"
           y="-681.39478"
           x="140.0296 187.24168 236.73819 271.34348 301.46445 350.36871 399.86523 441.32385"
           style="font-size:84.60945129px;font-variant:normal;font-weight:bold;font-stretch:normal;writing-mode:lr-tb;fill:#ec6608;fill-opacity:1;fill-rule:nonzero;stroke:none;font-family:ING Me;-inkscape-font-specification:INGMe-Bold">Entrance</tspan>
      </text>
    </g>
  </g>
</svg>
